<?xml version="1.0" standalone="no"?>
<!DOCTYPE svg PUBLIC "-//W3C//DTD SVG 20010904//EN"
 "http://www.w3.org/TR/2001/REC-SVG-20010904/DTD/svg10.dtd">
<svg version="1.0" xmlns="http://www.w3.org/2000/svg"
 width="16.000000pt" height="16.000000pt" viewBox="0 0 16.000000 16.000000"
 preserveAspectRatio="xMidYMid meet">
<metadata>
Created by potrace 1.11, written by Peter Selinger 2001-2013
</metadata>
<g transform="translate(0.000000,16.000000) scale(0.000480,-0.000480)"
fill="#000000" stroke="none">
<path d="M16148 33325 c-1 -1 -82 -6 -178 -9 -96 -4 -202 -9 -235 -11 -33 -2
-103 -7 -155 -10 -174 -11 -327 -22 -405 -30 -117 -11 -171 -16 -210 -20 -22
-3 -67 -7 -99 -10 -33 -3 -73 -8 -90 -10 -17 -2 -53 -7 -81 -10 -114 -13 -292
-36 -385 -50 -14 -2 -45 -7 -70 -10 -25 -3 -74 -11 -110 -16 -36 -6 -80 -13
-97 -15 -28 -4 -266 -44 -343 -58 -14 -3 -36 -7 -50 -10 -35 -6 -241 -45 -265
-50 -11 -2 -56 -12 -100 -21 -44 -9 -91 -19 -105 -21 -14 -3 -33 -7 -42 -10
-10 -3 -30 -7 -45 -10 -51 -9 -246 -55 -408 -95 -88 -22 -167 -42 -175 -44
-92 -20 -557 -151 -765 -216 -379 -117 -1075 -366 -1345 -480 -14 -6 -38 -17
-55 -24 -16 -7 -66 -27 -110 -45 -44 -19 -104 -44 -133 -57 -29 -12 -78 -34
-110 -47 -31 -13 -97 -43 -145 -65 -49 -23 -90 -41 -92 -41 -14 0 -724 -349
-875 -431 -52 -28 -144 -78 -205 -111 -60 -34 -128 -71 -150 -83 -349 -191
-938 -560 -1310 -818 -228 -158 -601 -430 -615 -446 -3 -4 -30 -24 -60 -46
-49 -35 -128 -96 -185 -143 -11 -9 -65 -52 -120 -96 -172 -137 -458 -380 -680
-578 -16 -14 -41 -36 -54 -48 -14 -11 -77 -69 -140 -128 -482 -449 -941 -925
-1336 -1387 -42 -49 -87 -101 -99 -115 -12 -14 -40 -47 -61 -75 -22 -27 -45
-54 -51 -60 -38 -34 -402 -505 -631 -815 -157 -214 -438 -628 -614 -905 -80
-127 -319 -524 -319 -531 0 -3 -8 -17 -19 -32 -31 -45 -182 -318 -308 -557
-87 -165 -320 -635 -383 -775 -29 -63 -68 -148 -86 -188 -19 -41 -34 -75 -34
-78 0 -2 -15 -37 -33 -76 -19 -40 -69 -158 -111 -263 -43 -104 -82 -199 -87
-210 -100 -224 -471 -1302 -514 -1495 -2 -8 -19 -69 -38 -135 -51 -176 -131
-475 -141 -529 -3 -11 -16 -70 -31 -130 -15 -60 -28 -118 -30 -128 -2 -11 -6
-27 -9 -36 -3 -9 -7 -28 -10 -42 -3 -14 -18 -86 -35 -160 -35 -161 -109 -540
-127 -654 -3 -21 -8 -48 -10 -60 -2 -11 -9 -55 -15 -96 -6 -41 -12 -77 -14
-80 -2 -3 -6 -29 -10 -59 -4 -30 -8 -62 -10 -72 -2 -9 -6 -39 -10 -66 -4 -26
-9 -59 -11 -73 -2 -14 -6 -50 -9 -80 -4 -30 -8 -62 -10 -70 -2 -8 -7 -42 -11
-75 -3 -33 -8 -67 -9 -75 -2 -8 -6 -46 -10 -85 -4 -38 -9 -77 -10 -86 -2 -9
-6 -52 -10 -95 -4 -43 -9 -86 -10 -95 -2 -8 -6 -53 -10 -100 -4 -46 -9 -92
-10 -101 -2 -9 -7 -63 -11 -120 -3 -57 -8 -116 -9 -133 -1 -16 -5 -82 -9 -145
-4 -63 -9 -137 -11 -165 -27 -361 -27 -1616 0 -1900 2 -22 7 -91 10 -154 4
-63 8 -121 10 -130 1 -9 6 -67 10 -129 3 -62 8 -123 10 -135 2 -12 6 -57 10
-100 4 -43 8 -88 10 -100 2 -12 6 -53 10 -92 3 -38 8 -81 10 -95 2 -14 7 -52
10 -85 7 -69 7 -65 40 -310 6 -42 35 -245 40 -275 2 -14 9 -56 15 -95 9 -58
65 -380 86 -490 69 -375 229 -1041 345 -1445 125 -433 366 -1154 438 -1315 5
-11 31 -76 57 -145 48 -126 204 -507 242 -590 11 -25 50 -110 85 -190 103
-231 430 -900 457 -935 4 -5 35 -63 70 -129 265 -505 716 -1229 1102 -1769
332 -465 774 -1019 1119 -1402 20 -22 62 -69 94 -105 207 -230 707 -741 925
-944 47 -44 110 -102 140 -131 100 -92 333 -299 475 -421 77 -65 145 -123 151
-129 47 -43 396 -320 555 -442 650 -497 1497 -1047 2154 -1398 50 -27 110 -59
135 -73 73 -41 597 -303 705 -354 55 -26 145 -68 200 -93 268 -125 757 -328
1063 -441 97 -36 200 -74 227 -84 168 -62 533 -183 770 -255 764 -233 1602
-422 2365 -535 80 -11 156 -23 170 -25 20 -4 341 -43 480 -60 92 -11 205 -22
298 -30 34 -3 88 -7 120 -10 74 -7 156 -13 267 -20 50 -3 108 -8 130 -10 289
-28 1821 -28 2060 0 17 2 77 6 135 10 58 3 125 8 150 10 25 2 79 7 120 10 41
3 91 8 110 10 19 2 67 7 105 10 39 3 86 8 105 10 19 2 98 11 175 20 77 8 156
18 175 21 19 2 55 7 80 10 25 3 56 7 70 9 14 2 61 9 105 15 44 6 91 12 105 15
14 2 84 13 157 25 540 83 1234 231 1753 374 30 8 82 22 115 31 615 166 1586
510 2130 755 404 181 540 244 755 351 680 336 1283 686 1920 1114 218 146 685
476 700 495 3 3 42 34 88 68 245 183 720 571 926 757 6 6 47 42 91 80 43 39
88 79 100 90 11 11 72 67 135 124 222 202 858 847 1046 1061 21 24 48 54 59
66 11 11 45 49 75 84 30 35 60 68 65 74 46 48 320 378 446 536 545 683 1019
1379 1445 2123 108 188 144 253 257 462 58 108 327 648 379 760 90 194 109
237 163 360 74 169 171 400 229 551 26 65 51 128 56 139 24 50 176 474 253
705 225 672 399 1321 537 2010 16 80 31 159 34 175 3 17 8 44 11 60 49 252
125 746 159 1038 4 26 8 68 12 95 3 26 7 63 9 82 2 19 7 60 10 90 2 30 9 100
15 155 5 55 12 134 15 175 3 41 7 93 10 115 2 22 7 87 10 145 3 58 8 119 10
135 27 216 27 1736 1 2013 -2 20 -7 91 -11 157 -4 66 -9 131 -10 145 -2 14 -6
70 -10 125 -4 55 -9 107 -10 116 -2 8 -6 55 -10 105 -4 49 -9 96 -10 104 -2 8
-6 47 -10 85 -4 39 -8 81 -10 95 -2 14 -7 52 -10 85 -4 33 -8 71 -10 85 -2 14
-6 43 -9 65 -12 91 -36 272 -40 295 -5 26 -25 157 -31 200 -7 43 -15 94 -20
120 -3 14 -7 41 -10 60 -6 36 -40 230 -51 285 -14 77 -58 291 -80 395 -14 63
-27 124 -29 135 -9 45 -29 127 -61 258 -18 75 -35 147 -38 160 -2 12 -10 42
-17 67 -7 25 -13 50 -15 56 -34 174 -369 1270 -423 1389 -5 11 -40 103 -77
205 -58 162 -237 619 -264 675 -5 11 -41 92 -79 180 -148 342 -415 902 -539
1127 -16 29 -53 98 -82 153 -29 55 -82 152 -118 215 -36 63 -75 133 -87 155
-55 101 -384 642 -452 742 -7 10 -67 101 -134 203 -67 102 -125 187 -128 190
-3 3 -10 13 -16 22 -19 33 -120 175 -249 352 -72 98 -135 185 -141 193 -5 9
-18 25 -27 37 -10 11 -73 93 -140 181 -68 88 -133 171 -145 185 -12 14 -72 88
-134 165 -62 77 -115 142 -119 145 -3 3 -43 50 -89 105 -83 99 -129 152 -306
349 -314 351 -742 783 -1110 1121 -60 55 -116 107 -125 115 -8 8 -49 44 -90
80 -41 36 -77 68 -80 71 -49 55 -673 563 -940 766 -343 259 -1005 714 -1258
864 -15 9 -112 68 -217 131 -195 117 -538 313 -725 413 -134 71 -667 338 -785
392 -49 23 -130 60 -178 82 -49 23 -90 41 -92 41 -3 0 -35 14 -71 31 -465 212
-1261 509 -1849 688 -234 71 -673 192 -750 207 -11 2 -31 8 -45 13 -14 6 -38
12 -55 15 -16 3 -86 19 -155 35 -69 17 -134 33 -145 35 -11 2 -38 9 -60 14
-22 6 -56 14 -75 17 -19 3 -82 17 -140 30 -58 13 -123 26 -145 29 -22 4 -47 8
-55 11 -8 2 -26 6 -40 9 -40 7 -143 26 -170 31 -38 8 -201 36 -235 42 -30 4
-187 30 -235 38 -14 3 -61 9 -105 15 -84 12 -124 18 -165 25 -14 2 -47 7 -75
10 -27 3 -61 7 -75 10 -14 2 -52 7 -85 10 -33 3 -73 8 -90 10 -16 2 -75 9
-130 15 -55 6 -118 13 -140 15 -22 3 -69 7 -105 10 -36 3 -81 8 -100 10 -19 2
-75 7 -125 10 -49 3 -112 8 -140 11 -27 3 -84 7 -125 9 -228 13 -320 18 -365
21 -62 5 -1252 14 -1257 9z m947 -1669 c132 -4 272 -9 310 -11 212 -11 462
-28 580 -39 28 -3 82 -8 120 -11 39 -4 84 -8 100 -11 17 -2 53 -6 80 -8 28 -2
71 -7 95 -10 25 -3 65 -8 90 -11 75 -8 151 -18 270 -35 36 -5 88 -12 115 -16
28 -3 59 -8 70 -10 11 -2 38 -7 60 -9 22 -3 81 -13 130 -21 50 -9 101 -17 115
-19 50 -7 305 -56 498 -95 231 -48 206 -42 346 -76 215 -51 342 -83 476 -119
74 -20 142 -38 150 -40 32 -7 466 -136 485 -144 11 -5 126 -43 255 -86 478
-157 1001 -364 1495 -591 169 -77 680 -331 805 -400 36 -20 93 -51 128 -70
153 -84 403 -228 470 -270 29 -19 54 -34 57 -34 19 0 664 -419 893 -581 54
-38 338 -246 414 -304 15 -11 49 -35 75 -54 26 -19 50 -37 53 -41 3 -3 46 -37
95 -75 50 -39 101 -80 115 -91 14 -12 79 -66 145 -119 103 -84 212 -176 354
-300 407 -353 985 -924 1306 -1291 6 -6 25 -28 44 -49 58 -65 174 -199 216
-250 53 -64 99 -119 105 -125 5 -4 107 -129 147 -180 243 -304 448 -577 609
-811 32 -46 60 -86 63 -89 14 -12 401 -606 401 -615 0 -2 18 -31 40 -64 22
-33 40 -62 40 -65 0 -3 15 -29 34 -58 39 -61 266 -457 266 -464 0 -2 10 -21
23 -42 52 -83 285 -538 403 -789 363 -768 670 -1598 894 -2413 42 -154 56
-207 66 -245 12 -47 67 -273 69 -285 2 -8 8 -35 15 -60 7 -25 14 -58 17 -75 2
-16 8 -43 13 -60 5 -16 29 -133 54 -260 60 -302 65 -324 71 -365 66 -393 62
-370 70 -430 3 -25 8 -56 10 -70 4 -27 12 -85 20 -152 3 -24 8 -54 10 -68 2
-14 7 -52 10 -85 4 -33 8 -69 10 -80 1 -11 5 -49 9 -85 4 -36 9 -81 11 -100 2
-19 7 -64 10 -100 3 -36 8 -81 10 -100 2 -19 7 -73 10 -120 4 -47 8 -105 10
-130 4 -40 9 -114 20 -320 23 -417 24 -1184 0 -1560 -2 -30 -6 -104 -9 -165
-4 -60 -9 -130 -11 -155 -2 -25 -7 -83 -10 -130 -4 -47 -8 -105 -10 -130 -3
-25 -7 -74 -10 -110 -3 -36 -8 -81 -10 -100 -2 -19 -9 -82 -15 -140 -9 -87
-36 -294 -66 -505 -34 -245 -124 -739 -185 -1015 -61 -277 -111 -479 -180
-732 -226 -829 -505 -1590 -874 -2388 -67 -145 -310 -636 -325 -655 -4 -5 -33
-59 -65 -120 -32 -60 -67 -126 -78 -145 -11 -19 -36 -64 -55 -100 -19 -36 -41
-72 -48 -81 -8 -8 -14 -18 -14 -22 0 -9 -210 -360 -318 -531 -346 -549 -842
-1229 -1200 -1646 -36 -41 -74 -86 -86 -100 -45 -54 -222 -256 -241 -276 -11
-11 -37 -41 -59 -65 -167 -189 -610 -640 -851 -865 -125 -117 -178 -165 -320
-293 -32 -30 -318 -273 -413 -353 -73 -60 -378 -300 -502 -395 -871 -661
-1938 -1290 -2925 -1725 -49 -22 -108 -48 -130 -58 -274 -124 -805 -327 -1205
-461 -411 -137 -603 -193 -1085 -319 -192 -50 -739 -170 -889 -195 -17 -3 -78
-14 -136 -25 -106 -19 -377 -64 -460 -75 -25 -3 -57 -8 -71 -10 -28 -5 -34 -6
-214 -29 -187 -24 -520 -58 -685 -71 -47 -3 -105 -8 -130 -10 -40 -3 -96 -7
-330 -20 -307 -17 -1009 -23 -1290 -10 -74 3 -182 8 -240 10 -113 6 -242 13
-330 20 -30 2 -89 7 -130 10 -71 5 -98 8 -220 20 -27 3 -72 7 -100 10 -191 19
-432 49 -648 81 -94 14 -182 27 -194 29 -12 3 -40 7 -63 11 -478 70 -1287 257
-1860 429 -1082 326 -2048 738 -3070 1310 -509 285 -1125 689 -1635 1074 -150
113 -448 346 -460 360 -3 3 -27 24 -55 46 -27 21 -52 42 -55 45 -3 3 -32 27
-65 55 -61 50 -338 291 -387 336 -14 13 -66 60 -114 104 -287 261 -680 658
-989 999 -115 127 -257 291 -340 391 -22 27 -56 67 -75 90 -19 23 -51 61 -70
85 -19 24 -47 58 -61 75 -102 119 -509 662 -621 829 -7 10 -20 28 -29 40 -40
53 -286 426 -376 571 -172 276 -360 596 -463 790 -23 44 -53 98 -66 121 -12
22 -78 151 -146 285 -133 262 -191 384 -315 659 -452 1001 -842 2251 -1037
3325 -37 203 -97 567 -111 680 -4 28 -9 61 -11 75 -2 14 -6 50 -10 80 -3 30
-8 63 -10 73 -2 10 -6 48 -10 85 -3 36 -7 73 -9 82 -3 15 -12 99 -20 190 -2
25 -7 68 -9 95 -13 127 -17 175 -21 235 -2 36 -7 101 -10 145 -3 44 -7 109
-10 145 -5 71 -14 286 -20 445 -5 146 -6 811 0 945 7 194 15 372 20 430 2 30
7 93 10 140 11 167 30 379 40 460 3 19 7 64 10 100 3 36 8 76 10 90 2 14 6 52
10 85 8 70 10 92 25 200 17 123 20 145 30 210 5 33 12 80 15 105 10 68 53 319
80 465 13 72 26 141 29 155 2 14 20 99 40 190 227 1063 551 2052 996 3041 92
203 312 655 398 814 127 237 190 351 285 515 11 19 25 44 31 55 6 11 56 94
111 184 55 91 109 179 120 198 90 148 328 507 454 683 53 74 104 148 115 165
10 16 21 32 25 35 4 3 24 30 46 60 22 30 42 57 45 60 3 3 39 50 79 105 67 90
417 533 430 545 5 4 51 58 137 160 38 45 116 133 181 206 35 40 73 83 84 95
142 165 614 648 839 859 81 76 234 216 284 261 27 24 57 51 66 59 9 8 34 30
55 49 108 92 162 139 199 172 23 19 77 64 121 100 44 35 96 79 115 96 19 18
38 33 42 33 4 0 13 6 20 13 16 16 238 191 293 232 22 16 42 32 45 35 8 10 364
269 490 357 122 85 510 343 515 343 2 0 36 22 77 48 161 106 551 334 868 507
186 101 650 335 666 335 8 0 14 5 14 10 0 6 5 10 12 10 6 0 39 13 72 29 128
61 416 189 571 252 66 28 129 54 140 59 11 5 45 19 75 30 30 11 64 25 75 30
61 27 496 186 655 239 303 102 733 233 870 267 8 2 42 11 75 20 33 9 67 18 75
19 8 2 42 11 75 20 33 9 67 18 75 20 32 7 197 46 235 55 22 6 49 13 60 15 102
23 156 35 176 39 13 3 44 9 69 14 264 55 576 113 735 136 22 4 81 13 130 21
50 8 106 16 125 19 83 11 137 18 160 21 14 2 43 6 65 9 22 3 65 8 96 11 31 3
65 7 75 9 11 2 54 7 97 11 43 3 86 8 95 10 9 1 53 6 97 9 44 4 94 8 110 10 17
2 75 7 130 11 55 4 116 9 135 11 19 2 85 6 145 9 61 3 146 8 190 10 44 3 190
8 325 11 135 3 246 7 247 8 3 3 362 -2 588 -8z"/>
<path d="M11069 24626 c-2 -2 -67 -7 -144 -10 -77 -4 -156 -8 -175 -10 -19 -3
-64 -7 -100 -11 -68 -6 -135 -13 -185 -20 -16 -2 -52 -7 -80 -10 -27 -3 -72
-10 -100 -15 -27 -5 -68 -12 -90 -15 -32 -4 -199 -38 -355 -71 -26 -6 -138
-35 -230 -60 -285 -79 -681 -241 -910 -371 -116 -66 -317 -196 -368 -238 -9
-7 -55 -44 -102 -81 -113 -90 -317 -296 -412 -414 -163 -205 -283 -412 -377
-648 -39 -97 -87 -242 -95 -284 -2 -13 -11 -50 -19 -83 -9 -33 -18 -76 -21
-95 -3 -19 -13 -84 -23 -145 -25 -162 -24 -667 1 -825 3 -14 7 -47 11 -75 7
-60 51 -272 67 -329 6 -23 12 -43 13 -46 57 -203 164 -442 283 -630 34 -52
133 -187 177 -239 467 -557 1242 -990 2380 -1330 94 -28 184 -55 200 -61 43
-13 873 -228 985 -255 107 -25 773 -216 850 -243 8 -3 20 -6 25 -8 107 -27
710 -244 820 -294 11 -5 70 -30 130 -56 177 -75 432 -205 523 -265 24 -16 45
-29 48 -29 14 0 214 -143 313 -224 55 -45 208 -204 254 -263 157 -204 265
-457 302 -703 3 -20 8 -47 10 -60 19 -94 26 -469 12 -615 -36 -358 -188 -731
-416 -1015 -152 -190 -399 -399 -631 -534 -83 -48 -304 -154 -405 -194 -160
-63 -453 -152 -587 -177 -13 -3 -45 -9 -73 -15 -27 -6 -61 -12 -75 -15 -47 -9
-295 -44 -360 -51 -36 -3 -73 -8 -82 -10 -137 -25 -990 -25 -1126 0 -9 2 -44
7 -77 10 -84 9 -147 18 -170 22 -33 7 -68 13 -115 19 -69 10 -371 81 -468 111
-373 113 -718 286 -1007 505 -334 252 -623 630 -782 1024 -66 162 -133 391
-158 535 -3 19 -8 42 -11 52 -4 15 -59 16 -665 16 l-661 0 6 -32 c3 -17 8 -49
12 -71 3 -22 13 -69 21 -105 8 -36 16 -72 18 -80 91 -422 317 -930 579 -1300
173 -245 390 -485 606 -671 41 -35 77 -66 80 -69 3 -3 52 -42 110 -86 314
-240 632 -420 1040 -587 338 -138 825 -269 1200 -322 24 -4 47 -8 50 -10 3 -1
36 -6 73 -10 37 -3 76 -8 85 -10 9 -1 55 -6 102 -10 47 -4 93 -9 103 -11 100
-19 873 -26 1077 -10 58 4 128 10 155 11 28 2 66 6 85 9 19 3 60 8 90 11 101
9 252 30 335 45 28 5 66 12 85 15 19 3 46 8 60 10 14 3 36 7 49 10 117 22 297
66 452 111 1222 349 2108 1081 2494 2059 4 11 9 25 11 30 2 6 19 53 37 105 35
99 78 256 96 350 18 87 19 95 27 147 3 26 8 56 10 66 13 71 19 219 19 437 -1
283 -8 393 -35 560 -5 30 -12 71 -15 90 -9 53 -45 221 -55 255 -30 101 -93
282 -111 323 -102 225 -180 359 -314 537 -137 183 -407 444 -599 580 -16 11
-33 25 -40 30 -36 32 -289 193 -401 255 -33 18 -76 42 -95 53 -47 26 -333 169
-390 195 -82 36 -381 162 -386 162 -4 0 -20 6 -37 14 -114 52 -771 278 -907
311 -8 3 -85 25 -170 50 -85 25 -198 57 -250 71 -52 15 -106 30 -120 35 -14 4
-135 36 -270 69 -572 144 -1235 336 -1415 410 -11 4 -49 18 -85 30 -271 92
-632 254 -845 379 -311 182 -496 343 -641 557 -134 198 -196 372 -239 674 -10
68 -13 406 -4 475 85 674 529 1151 1317 1414 68 22 134 43 145 45 12 3 38 10
57 16 19 5 49 13 65 16 17 3 46 9 65 14 39 10 226 46 280 54 98 13 137 19 152
22 9 1 48 6 85 10 37 3 79 8 93 10 97 12 310 19 580 19 358 0 518 -8 730 -36
41 -6 89 -12 105 -14 90 -10 319 -53 410 -77 22 -5 48 -12 59 -14 32 -6 126
-33 241 -70 330 -106 640 -266 895 -462 109 -83 308 -284 387 -387 179 -237
303 -494 375 -778 17 -67 33 -124 35 -127 5 -5 1303 -9 1314 -3 4 1 2 24 -2
50 -5 27 -12 61 -15 77 -14 82 -105 395 -134 461 -5 11 -34 81 -65 155 -108
258 -255 506 -435 734 -108 136 -344 383 -451 471 -34 28 -71 58 -83 69 -87
76 -355 262 -505 348 -104 61 -377 199 -447 227 -28 11 -71 29 -95 39 -223
101 -719 248 -1014 301 -33 6 -71 13 -85 16 -14 3 -54 10 -90 15 -36 6 -76 13
-90 16 -14 2 -45 7 -70 10 -25 3 -56 7 -70 9 -14 2 -56 7 -95 11 -38 3 -77 8
-86 9 -8 2 -55 6 -105 10 -49 4 -109 9 -134 12 -57 6 -805 15 -811 9z"/>
<path d="M18103 24392 l-33 -3 0 -5885 0 -5884 638 0 637 0 -1 2318 c0 1274 2
2322 4 2328 2 9 406 12 1567 12 l1563 0 56 -84 c31 -46 56 -88 56 -94 0 -5 3
-10 8 -10 4 0 12 -9 17 -20 6 -11 44 -71 85 -135 41 -63 86 -133 100 -155 14
-21 58 -90 98 -152 41 -62 116 -178 167 -258 52 -80 121 -188 155 -240 34 -52
86 -133 115 -180 30 -47 58 -89 62 -95 5 -5 37 -55 72 -110 36 -55 88 -136
116 -180 29 -44 139 -215 245 -380 106 -165 218 -338 248 -385 78 -120 148
-228 226 -350 37 -58 118 -182 179 -277 187 -288 604 -934 867 -1343 l135
-210 768 0 c422 0 767 2 767 4 0 4 -232 355 -1079 1631 -91 138 -168 254 -170
260 -2 5 -8 14 -13 20 -5 5 -103 152 -218 325 -114 173 -213 320 -219 327 -6
7 -11 14 -11 17 0 3 -73 115 -162 248 -89 134 -288 434 -443 668 -155 234
-414 625 -577 870 -323 488 -351 531 -346 534 2 1 41 15 88 30 286 94 691 283
935 436 302 191 531 381 776 646 108 117 310 392 359 489 8 17 18 32 21 35 13
10 130 251 175 361 85 209 156 463 189 679 4 25 9 54 11 64 35 189 40 806 9
1021 -6 38 -12 86 -20 150 -31 250 -149 671 -249 888 -136 297 -258 495 -451
733 -42 51 -270 283 -341 345 -205 182 -542 394 -844 531 -297 136 -735 274
-1020 324 -14 2 -36 7 -50 10 -14 3 -36 8 -50 10 -27 5 -130 23 -170 29 -119
20 -359 48 -520 61 -47 3 -101 8 -120 9 -157 14 -752 18 -2430 19 -1070 1
-1960 0 -1977 -2z m4282 -1075 c906 -67 1535 -302 1987 -743 193 -188 339
-403 448 -659 35 -82 104 -283 115 -331 33 -158 57 -278 61 -314 2 -25 7 -56
9 -70 26 -148 26 -708 0 -783 -2 -7 -6 -30 -9 -52 -29 -266 -163 -618 -333
-875 -305 -462 -803 -809 -1418 -986 -113 -33 -131 -38 -180 -48 -11 -3 -65
-14 -120 -26 -55 -12 -116 -24 -135 -26 -19 -2 -60 -9 -90 -14 -30 -5 -77 -11
-105 -14 -27 -3 -68 -8 -90 -10 -159 -18 -405 -21 -1710 -21 l-1470 0 -1 2485
c0 1367 1 2488 3 2491 3 7 2943 3 3038 -4z"/>
<path d="M7385 10893 c-221 -43 -350 -112 -430 -228 -58 -83 -74 -143 -71
-260 3 -123 27 -190 94 -267 86 -99 208 -160 488 -242 164 -49 232 -71 319
-106 102 -40 180 -99 209 -157 49 -97 24 -224 -59 -308 -101 -101 -232 -135
-470 -124 -41 2 -141 33 -185 57 -92 52 -160 136 -184 230 l-12 47 -133 2
-133 1 5 -43 c7 -53 50 -156 90 -214 92 -134 228 -224 411 -273 65 -18 109
-22 226 -23 196 0 277 15 410 78 219 102 331 284 317 511 -13 198 -99 309
-317 414 -66 31 -222 90 -260 97 -3 1 -32 9 -65 19 -322 94 -444 157 -482 246
-17 40 -9 140 15 185 49 95 173 145 364 147 172 1 298 -37 381 -116 35 -33 76
-106 82 -145 2 -14 22 -16 138 -19 l135 -3 -5 33 c-8 54 -61 169 -101 217 -48
61 -48 61 -112 107 -133 98 -299 143 -520 142 -69 -1 -134 -3 -145 -5z"/>
<path d="M18380 9941 l0 -921 130 0 130 0 0 350 0 350 221 -2 222 -3 81 -127
c45 -70 144 -227 221 -348 l140 -220 157 0 157 0 -68 103 c-286 429 -421 642
-417 653 3 8 13 14 22 14 23 0 124 63 178 111 54 49 97 113 128 194 31 81 33
289 4 375 -19 57 -60 135 -83 158 -7 7 -18 21 -25 30 -16 21 -102 92 -112 92
-5 0 -20 8 -34 18 -27 19 -166 66 -232 78 -19 4 -212 9 -427 11 l-393 4 0
-920z m789 685 c127 -34 193 -85 238 -183 23 -50 27 -71 27 -153 0 -77 -4
-104 -22 -145 -24 -52 -97 -135 -119 -135 -7 0 -13 -4 -13 -8 0 -8 -99 -46
-150 -58 -14 -3 -130 -7 -257 -9 l-233 -3 0 358 0 358 233 -3 c182 -2 246 -6
296 -19z"/>
<path d="M23763 10715 l0 -146 140 3 140 3 0 125 c-1 69 -2 133 -2 143 -1 15
-15 17 -139 17 l-139 0 0 -145z"/>
<path d="M16849 10653 c0 -10 -3 -54 -5 -98 -2 -44 -6 -107 -7 -140 l-3 -60
-97 -3 c-67 -2 -97 -6 -98 -15 0 -7 -1 -53 -2 -104 l-2 -92 100 -3 100 -3 1
-435 c0 -375 3 -443 17 -491 31 -103 110 -184 211 -214 57 -18 190 -18 261 -2
50 11 47 2 47 137 0 95 3 89 -44 78 -72 -16 -152 -13 -186 7 -57 34 -57 33
-60 498 l-3 427 145 0 144 0 0 105 1 105 -145 0 -144 0 0 160 0 160 -115 0
c-103 0 -115 -2 -116 -17z"/>
<path d="M23020 10663 c-5 -76 -10 -165 -12 -230 l-3 -83 -97 0 -98 0 -1 -50
c0 -27 -1 -66 -1 -85 0 -82 -8 -75 97 -75 52 0 96 -3 96 -7 1 -5 2 -206 4
-448 2 -422 3 -442 23 -495 53 -136 159 -204 322 -209 67 -2 176 12 188 24 4
3 6 162 3 203 -1 7 -5 11 -10 8 -13 -9 -81 -18 -132 -19 -58 0 -98 16 -124 51
-19 26 -20 45 -23 460 l-3 432 144 0 144 0 0 105 1 105 -144 0 -144 0 0 160 0
160 -115 0 c-63 0 -115 -3 -115 -7z"/>
<path d="M8965 10370 c-99 -26 -120 -35 -197 -86 -114 -76 -202 -207 -244
-364 -20 -77 -28 -319 -13 -395 5 -27 11 -59 13 -71 17 -92 81 -215 149 -286
66 -68 84 -81 154 -117 97 -48 167 -64 298 -67 174 -5 264 18 395 101 92 58
158 140 204 254 19 48 22 61 10 62 -8 0 -34 0 -59 0 -25 0 -80 0 -123 0 l-78
-1 -13 -35 c-17 -49 -85 -113 -151 -144 -46 -22 -71 -26 -150 -27 -81 -2 -104
2 -160 24 -117 47 -213 171 -234 305 -3 20 -9 53 -12 72 l-5 35 507 0 507 0
-6 98 c-21 344 -147 541 -407 634 -81 30 -289 34 -385 8z m243 -185 c113 -12
209 -82 258 -190 23 -51 48 -151 40 -164 -7 -11 -736 -7 -737 4 -2 27 13 87
35 136 31 71 101 148 162 179 46 23 157 50 179 44 6 -1 34 -5 63 -9z"/>
<path d="M10475 10384 c-59 -9 -161 -48 -213 -81 -185 -117 -286 -343 -276
-615 15 -396 268 -646 632 -625 48 3 100 8 116 12 93 20 208 78 251 125 10 11
21 20 24 20 7 0 5 -158 -3 -233 -10 -99 -76 -190 -171 -233 -61 -28 -108 -37
-200 -36 -158 0 -253 48 -301 150 -15 32 -28 59 -30 61 -2 2 -61 5 -130 5
l-126 1 5 -39 c7 -54 59 -153 106 -203 61 -65 175 -131 253 -147 13 -3 46 -9
73 -15 71 -15 308 -7 377 13 201 55 335 186 383 371 13 50 15 162 15 747 0
648 -1 688 -17 689 -22 1 -152 1 -174 0 -14 -1 -22 -25 -44 -146 -2 -11 -4
-21 -4 -23 -1 -1 -18 17 -38 40 -21 24 -47 51 -58 60 -27 24 -153 86 -190 94
-39 8 -221 13 -260 8z m270 -221 c132 -38 229 -149 265 -302 13 -56 18 -215 8
-266 -20 -102 -72 -193 -141 -244 -75 -56 -134 -74 -247 -75 -88 -1 -101 2
-160 31 -76 38 -104 61 -148 123 -93 133 -106 375 -28 545 74 163 263 241 451
188z"/>
<path d="M12135 10384 c-108 -26 -189 -72 -252 -142 l-31 -36 -11 40 c-6 21
-11 54 -13 72 -2 24 -7 32 -23 33 -27 1 -157 1 -172 0 -10 -1 -13 -141 -13
-666 l0 -665 123 0 122 0 0 408 c-1 446 4 510 49 587 63 106 155 159 277 159
146 0 229 -74 244 -217 2 -17 4 -236 4 -484 l1 -453 123 0 122 0 0 417 c0 286
4 435 12 475 14 71 52 139 101 182 36 32 92 69 92 61 0 -2 15 2 33 9 33 14
129 15 182 1 46 -12 103 -56 122 -95 35 -74 39 -127 38 -592 l0 -458 123 0
122 0 0 493 c-1 442 -3 499 -19 562 -29 110 -74 179 -156 237 -81 56 -135 72
-260 75 -183 3 -297 -37 -401 -144 l-51 -52 -30 43 c-36 51 -99 97 -174 127
-40 16 -81 22 -159 25 -58 1 -114 1 -125 -2z"/>
<path d="M14234 10371 c-221 -54 -378 -215 -440 -451 -27 -101 -29 -321 -4
-440 66 -319 295 -500 634 -500 213 0 394 85 501 234 39 56 98 176 90 185 -2
1 -61 3 -132 3 l-128 0 -22 -38 c-69 -122 -181 -180 -334 -172 -101 6 -169 33
-240 96 -45 41 -103 139 -113 194 -2 15 -7 31 -9 35 -3 5 -8 32 -11 61 l-6 52
506 0 505 0 -2 73 c-9 331 -154 574 -387 651 -79 27 -91 28 -217 31 -88 3
-139 -1 -191 -14z m324 -205 c90 -30 174 -126 200 -226 19 -77 21 -95 14 -105
-5 -7 -134 -11 -374 -10 l-367 0 5 25 c22 100 53 166 107 226 98 109 255 143
415 90z"/>
<path d="M15815 10369 c-38 -11 -72 -23 -75 -27 -3 -4 -18 -14 -34 -22 -16 -8
-56 -40 -88 -70 -32 -31 -59 -52 -59 -48 -1 5 -2 11 -3 16 -2 4 -6 33 -10 65
-5 31 -12 60 -17 63 -8 4 -150 9 -186 5 -10 -1 -13 -141 -13 -666 l0 -665 123
0 122 0 0 418 c-1 524 3 553 104 651 104 101 294 118 413 37 38 -27 83 -106
92 -161 2 -16 5 -236 5 -487 l1 -458 123 0 123 0 -2 488 c-1 338 -5 502 -13
537 -32 133 -119 248 -225 298 -106 50 -259 60 -381 26z"/>
<path d="M20455 10384 c-84 -19 -120 -31 -190 -65 -223 -109 -339 -325 -339
-629 0 -157 18 -245 74 -365 100 -218 298 -338 567 -344 316 -7 554 161 637
449 47 165 39 411 -19 565 -77 207 -225 332 -445 379 -61 13 -241 19 -285 10z
m265 -219 c174 -70 261 -241 255 -500 -4 -175 -45 -293 -130 -379 -63 -64
-163 -106 -252 -106 -174 0 -309 96 -372 265 -27 71 -32 105 -36 225 -8 258
92 438 280 501 65 22 192 19 255 -6z"/>
<path d="M24870 10371 c-81 -26 -162 -75 -213 -130 l-45 -48 -7 31 c-4 17 -9
49 -12 71 -3 22 -8 43 -12 47 -6 7 -89 11 -168 9 l-33 -1 0 -665 0 -665 123 0
122 0 0 428 c-1 429 3 483 37 552 83 167 323 232 475 129 47 -33 91 -110 97
-174 2 -22 5 -241 5 -487 l1 -448 123 0 122 0 -1 488 c0 419 -3 496 -17 549
-41 155 -132 258 -272 307 -73 26 -252 30 -325 7z"/>
<path d="M26201 10374 c-231 -55 -399 -252 -437 -512 -9 -59 -9 -234 0 -287
54 -312 269 -506 571 -514 156 -4 290 36 393 118 42 33 52 38 53 24 4 -59 0
-199 -6 -230 -31 -168 -176 -264 -385 -256 -152 6 -240 54 -289 157 l-30 61
-100 -2 c-159 -2 -151 -1 -151 -23 0 -55 66 -178 125 -233 122 -113 272 -160
493 -153 70 2 136 6 147 9 159 39 227 76 315 168 25 26 58 72 74 102 56 112
55 103 56 857 l0 695 -82 -2 c-46 -1 -92 -2 -104 -2 -18 -1 -23 -11 -34 -73
-18 -102 -18 -101 -53 -60 -18 20 -43 47 -57 60 -30 27 -152 89 -195 98 -57
13 -249 12 -304 -2z m314 -211 c144 -42 242 -161 272 -331 6 -38 7 -216 0
-242 -15 -58 -23 -81 -44 -124 -64 -128 -194 -197 -362 -191 -68 2 -92 8 -144
34 -148 74 -216 192 -222 386 -5 158 33 289 110 373 39 44 123 91 184 103 55
11 151 7 206 -8z"/>
<path d="M21507 10343 c-2 -5 -3 -224 -2 -488 1 -405 4 -489 18 -540 26 -98
57 -156 113 -212 83 -84 187 -121 335 -121 142 0 265 46 349 131 51 53 56 50
66 -35 7 -65 -5 -59 129 -59 36 0 70 0 75 0 7 1 10 230 10 666 l0 666 -122 -3
-123 -3 -1 -440 c-1 -424 -2 -442 -22 -500 -51 -139 -168 -216 -322 -210 -132
5 -226 75 -247 184 -3 14 -6 33 -8 41 -2 8 -4 221 -4 473 l-1 457 -119 0 c-66
0 -122 -3 -124 -7z"/>
<path d="M23780 9685 l0 -665 123 0 122 0 0 665 0 665 -122 0 -123 0 0 -665z"/>
</g>
</svg>
