<svg id="Layer_1" data-name="Layer 1" xmlns="http://www.w3.org/2000/svg" xmlns:xlink="http://www.w3.org/1999/xlink" viewBox="0 0 694.49 693.48"><defs><style>.cls-1,.cls-6,.cls-7,.cls-8{fill:none;}.cls-2{clip-path:url(#clip-path);}.cls-3{fill:#6abf4b;}.cls-4{fill:#00bceb;}.cls-5{fill:#1850a3;}.cls-6{stroke:#6abf4b;}.cls-6,.cls-7,.cls-8{stroke-linecap:round;stroke-linejoin:round;stroke-width:10px;}.cls-7{stroke:#1850a3;}.cls-8{stroke:#00bceb;}</style><clipPath id="clip-path"><rect class="cls-1" x="-653.04" y="-414.5" width="1971.3" height="1135.96"/></clipPath></defs><g id="Layer_2" data-name="Layer 2"><g class="cls-2"><path class="cls-3" d="M429.14,744.25c-5.17-5.81-8.47-12.07-11.33-18.3l-1.08-2.35-1-2.36c-.62-1.57-1.3-3.14-1.87-4.72-1.1-3.16-2.29-6.32-3.22-9.49a357.29,357.29,0,0,1-9.44-38.3c-5-25.63-8.25-51.37-11-77.12s-4.64-51.53-6.24-77.32-2.77-51.58-3.68-77.37c-1.82-51.59-2.59-103.19-2.7-154.77s.42-103.15,1.75-154.74a3.51,3.51,0,0,1,7,.13h0q-1,77.21.24,154.5c.78,51.5,2.21,103,4.69,154.38q1.86,38.57,4.66,77c1.92,25.63,4.23,51.22,7.19,76.7s6.61,50.86,11.78,75.78a344.61,344.61,0,0,0,9.51,36.61c.92,3,2,5.86,3.1,8.77.54,1.45,1.16,2.83,1.74,4.24l.88,2.11,1,2c2.54,5.43,5.52,10.62,9,14.4h.05a7.5,7.5,0,0,1-11,10.19Z"/><path class="cls-4" d="M229.61,745.48c4.64-3.45,8.77-8.79,12.27-14.58,1.78-2.9,3.41-6,4.94-9.1s3-6.36,4.32-9.63a322.26,322.26,0,0,0,13.26-41c3.64-14,6.74-28.27,9.47-42.6s5.16-28.74,7.33-43.21c4.34-28.94,7.79-58,10.74-87.23s5.36-58.42,7.44-87.71c4.13-58.56,6.91-117.25,8.85-176s3-117.51,3.11-176.22h0a4.58,4.58,0,0,1,9.15,0c.41,58.9-.25,117.72-1.66,176.58s-3.71,117.7-7.37,176.46c-1.84,29.39-4,58.78-6.74,88.14s-6,58.68-10.09,87.94q-3.11,21.95-7,43.82t-9.32,43.58a338.2,338.2,0,0,1-13.53,43c-1.43,3.53-2.93,7-4.62,10.52s-3.46,6.93-5.5,10.32c-4.06,6.75-8.85,13.47-16,19a7.5,7.5,0,0,1-9.15-11.89h.07Z"/><path class="cls-5" d="M276.66,301c0,9.88-.32,19.65-.69,29.46s-.88,19.59-1.48,29.38q-1.82,29.35-4.93,58.63A1053.58,1053.58,0,0,1,251,534.75c-4.29,19.2-9.23,38.3-15.13,57.14Q231.43,606,226.21,620c-3.47,9.28-7.19,18.48-11.33,27.52s-8.57,18-13.44,26.69a272.81,272.81,0,0,1-16.17,25.37c-11.77,16.31-25.81,31.45-42.83,43.2a7.5,7.5,0,1,1-8.82-12.13l.3-.21.11-.08c15.39-10.24,28.62-23.92,39.94-39.08a257.65,257.65,0,0,0,15.72-23.81c4.8-8.26,9.23-16.77,13.35-25.45s7.91-17.54,11.44-26.52,6.82-18.06,9.84-27.26c6.09-18.36,11.27-37.07,15.81-56a1042,1042,0,0,0,20.34-114.87q3.57-29,5.86-58.15,1.14-14.58,1.95-29.17c.53-9.71,1-19.48,1.17-29.15h0a3.61,3.61,0,0,1,7.21.09Z"/><path class="cls-5" d="M522.39,742.48c-1.22-1-1.93-1.68-2.82-2.5s-1.63-1.58-2.41-2.39-1.54-1.6-2.29-2.41l-2.19-2.45c-2.85-3.31-5.59-6.67-8.13-10.14a233.66,233.66,0,0,1-14.08-21.41,344.8,344.8,0,0,1-22-45.66,482.32,482.32,0,0,1-16-47.72c-1.09-4-2.27-8.06-3.27-12.12l-3-12.18c-1-4.06-1.8-8.16-2.71-12.24l-1.33-6.12c-.42-2-.78-4.1-1.18-6.15a838.3,838.3,0,0,1-12.87-99.08c-2.41-33.19-3.24-66.44-2.91-99.64a3,3,0,0,1,6,0h0c.42,33.06,2,66.09,5.13,98.94a829.73,829.73,0,0,0,14.93,97.66c.43,2,.84,4,1.3,6l1.44,6c1,4,1.87,8,2.93,12l3.21,11.89c1.06,4,2.32,7.86,3.47,11.8a468.62,468.62,0,0,0,16.62,46.13,329.06,329.06,0,0,0,22.06,43.37A214.78,214.78,0,0,0,516,713.86c2.43,3.16,5,6.17,7.62,9.08l2,2.13c.67.7,1.35,1.36,2,2s1.37,1.3,2,1.94a19.28,19.28,0,0,0,1.85,1.59l.12.08a7.51,7.51,0,0,1-9.14,11.91Z"/><circle class="cls-6" cx="383.49" cy="114.92" r="13.8" transform="translate(208.62 475.05) rotate(-80.78)"/><circle class="cls-7" cx="429.38" cy="347.37" r="13.8"/><circle class="cls-7" cx="272.75" cy="288.51" r="13.8"/><circle class="cls-8" cx="315.65" cy="42.09" r="13.8"/></g></g></svg>