<svg id="Layer_1" data-name="Layer 1" xmlns="http://www.w3.org/2000/svg" viewBox="0 0 137.8 139.37"><defs><style>.cls-1{fill:#149ed9;}.cls-2,.cls-3{fill:none;stroke-linecap:round;stroke-linejoin:round;stroke-width:7.04px;}.cls-2{stroke:#fff;}.cls-3{stroke:#6abf4b;}</style></defs><g id="Layer_2" data-name="Layer 2"><rect class="cls-1" y="50.63" width="36.55" height="36.55" rx="5.35"/><rect class="cls-1" x="101.25" y="50.63" width="36.55" height="36.55" rx="5.35"/><rect class="cls-1" x="101.25" y="102.82" width="36.55" height="36.55" rx="5.35"/><rect class="cls-1" x="101.25" width="36.55" height="36.55" rx="5.35"/><line class="cls-2" x1="76.8" y1="79.65" x2="86.54" y2="70.07"/><line class="cls-2" x1="86.54" y1="70.07" x2="77.62" y2="59.72"/><line class="cls-2" x1="50.09" y1="70.23" x2="86.55" y2="70.23"/><line class="cls-3" x1="76.8" y1="79.65" x2="86.54" y2="70.07"/><line class="cls-3" x1="86.54" y1="70.07" x2="77.62" y2="59.72"/><line class="cls-3" x1="50.09" y1="70.23" x2="86.55" y2="70.23"/><line class="cls-2" x1="63.95" y1="24.4" x2="77.6" y2="24.87"/><line class="cls-2" x1="77.6" y1="24.87" x2="78.03" y2="38.53"/><line class="cls-2" x1="50.64" y1="49.41" x2="77.5" y2="24.75"/><line class="cls-3" x1="63.95" y1="24.4" x2="77.6" y2="24.87"/><line class="cls-3" x1="77.6" y1="24.87" x2="78.03" y2="38.53"/><line class="cls-3" x1="50.64" y1="49.41" x2="77.5" y2="24.75"/><line class="cls-2" x1="63.95" y1="118.46" x2="77.6" y2="118"/><line class="cls-2" x1="77.6" y1="118" x2="78.03" y2="104.34"/><line class="cls-2" x1="50.64" y1="93.46" x2="77.5" y2="118.12"/><line class="cls-3" x1="63.95" y1="118.46" x2="77.6" y2="118"/><line class="cls-3" x1="77.6" y1="118" x2="78.03" y2="104.34"/><line class="cls-3" x1="50.64" y1="93.46" x2="77.5" y2="118.12"/></g></svg>