<svg xmlns="http://www.w3.org/2000/svg" width="189.6" height="64.8" viewBox="0 0 189.6 64.8"><style type="text/css">.st0{fill:#000104;}</style><path class="st0" d="M145.2 7.1v49.9h-6.6v-49.9h6.6zm-98.5 49.8h-13.5l-2.3-8.3h-14.8l-2.6 8.3h-13.5l16-50.8h15l15.7 50.8zm-27.6-18.5h8.9l-4.4-15.7-4.5 15.7zm42.7 18.5h-12.7v-50.7h18.6c5.6 0 10.1 1.2 13.2 3.7 3.4 2.7 5.2 7.2 5.2 12.6 0 5.5-1.9 10.4-5.2 13.1-3.1 2.5-7.6 3.7-13.2 3.7h-5.9v17.6zm0-28.6h5.9c5.8 0 6.6-2.3 6.6-5.8 0-3.4-.8-5.7-6.6-5.7h-5.9v11.5zm126.4 21.9c-3.3 1.3-6.8 1.9-10.3 1.9-11.7 0-19.3-8.2-19.3-20.8 0-11.4 7.5-19.5 18.1-19.5 4.3 0 7.6.9 11 3l1.7-5.6c-1-.6-2-1-3.1-1.4-3-1.1-6.2-1.7-9.4-1.7-14.3 0-25 11-25 25.6 0 15.3 10.6 26.1 25.7 26.1 2.3 0 4.6-.3 6.9-.8 1.8-.4 3.5-1 5.2-1.8l-1.5-5zm-63.8 6.6l-27.3-38.7v38.6h-6.3v-49.6h6l26.3 37.2v-37.2h6.3v49.6h-5z"/></svg>