<svg xmlns="http://www.w3.org/2000/svg" width="174" height="40" viewBox="0 0 190 40" fill="none"><path d="M74.493 35.4h-4.31l-3.638-9.12h-14.26l-3.699 9.12h-4.148l12.73-30.84h4.637L74.493 35.4zm-9.358-12.64L60.988 12.4c-.817-1.98-1.43-3.84-1.573-4.36-.082.52-.634 2.08-1.573 4.36l-4.189 10.36h11.482zm10.91-9.24h3.638v3.78c.899-2.34 2.88-4.14 5.68-4.14h1.94v3.62h-1.797c-4.311 0-5.68 3.74-5.68 8.06V35.4h-3.78V13.52zm11.79 10.96c0-6.44 3.923-11.58 10.4-11.58 7.028 0 10.583 5.6 9.99 12.12l-.02.24H91.492c.184 4.24 2.738 7.48 7.07 7.48 2.962 0 4.719-1.26 5.72-3.5h3.8c-1.389 4.44-4.719 6.78-9.541 6.78-6.62 0-10.706-5.06-10.706-11.54zm16.733-2.38c-.49-3.62-2.656-5.82-6.477-5.82-3.78 0-5.802 2.26-6.435 5.82h12.912zm11.278-18.42v26.04c0 1.76.859 2.68 2.616 2.74v3.22c-3.923 0-6.395-1.46-6.395-5.56V3.68h3.779zm8.52.72c1.492 0 2.656 1.14 2.656 2.52 0 1.4-1.164 2.52-2.656 2.52-1.43 0-2.656-1.1-2.656-2.52 0-1.38 1.206-2.52 2.656-2.52zm-1.9 9.12h3.78V35.4h-3.78V13.52zm7.642 10.92c0-6.44 4.27-11.58 10.849-11.58 6.517 0 10.849 5.16 10.849 11.58 0 6.52-4.311 11.58-10.849 11.58-6.579 0-10.849-5.06-10.849-11.58zm10.849 8.1c4.454 0 7.069-3.56 7.069-8.1 0-4.44-2.615-8.06-7.069-8.06-4.495 0-7.07 3.62-7.07 8.06 0 4.54 2.575 8.1 7.07 8.1zm14.506-19.02h3.637v3.62c1.348-2.68 4.188-4.18 7.335-4.18 4.495 0 7.518 3.08 7.518 7.48V35.4h-3.759V21.52c0-3-1.573-5.12-4.822-5.12-3.555 0-6.129 2.56-6.129 6.12V35.4h-3.78V13.52zM36.184 7.14L33.57 4.58l-11.3 11.06V0h-3.677v15.64L7.294 4.58 4.679 7.14 15.977 18.2 0 18.22v3.62l15.977-.02L4.68 32.88l2.615 2.56 11.299-11.06V40h3.677V24.36L33.57 35.42l2.615-2.56L24.886 21.8h15.977v-3.6H24.886L36.184 7.14z" fill="#000"/></svg>
