<?xml version="1.0" encoding="utf-8"?>
<!-- Generator: Adobe Illustrator 22.0.1, SVG Export Plug-In . SVG Version: 6.00 Build 0)  -->
<svg version="1.1" xmlns="http://www.w3.org/2000/svg" xmlns:xlink="http://www.w3.org/1999/xlink" x="0px" y="0px"
	 viewBox="0 0 303 165.6" style="enable-background:new 0 0 303 165.6;" xml:space="preserve">
<style type="text/css">
	.st0{fill:none;}
	.st1{fill:#5A5A5A;}
	.st2{fill:#0068A2;}
</style>
<g id="Protection_Zone">
	<rect y="124.8" class="st0" width="40.8" height="40.8"/>
	<rect x="262.2" y="124.8" class="st0" width="40.8" height="40.8"/>
	<rect x="262.2" y="0.1" class="st0" width="40.8" height="40.8"/>
	<rect y="0.1" class="st0" width="40.8" height="40.8"/>
</g>
<g id="cesnet">
	<g>
		<g>
			<path class="st1" d="M262.1,58.8v-8h-9.5v-9.8h-9.7l0,9.8h-6.7v8h6.7v17.6c0,1.9,0.2,3.6,0.5,5.2c0.3,1.6,1,3.1,1.9,4.4
				c0.9,1.3,2.2,2.3,3.8,3c1.6,0.7,3.7,1.1,6.3,1.1c1.1,0,2.2-0.1,3.4-0.3c1.2-0.2,2.2-0.4,3-0.8l0.1,0l-0.3-7.8l-0.2,0.1
				c-0.6,0.3-1.2,0.5-1.9,0.6c-0.7,0.1-1.4,0.2-2,0.2c-2,0-3.4-0.5-3.9-1.6c-0.6-1.1-0.9-2.5-0.9-4.1V58.8H262.1z"/>
			<path class="st1" d="M84,66c0.2-2.5,1.3-4.7,3.2-6.3c1.9-1.7,4.3-2.5,7.1-2.5c1.5,0,2.8,0.2,3.9,0.7c1.1,0.5,2,1.2,2.8,2
				c0.7,0.8,1.3,1.8,1.6,2.9c0.3,1,0.5,2.1,0.5,3.3H84z M107.7,54.9c-1.7-1.7-3.6-3.1-5.9-3.9c-2.3-0.9-4.8-1.3-7.4-1.3
				c-2.9,0-5.6,0.5-8,1.5c-2.5,1-4.6,2.4-6.4,4.2c-1.8,1.8-3.2,4-4.3,6.5c-1,2.5-1.6,5.4-1.6,8.4c0,3.1,0.5,6,1.6,8.4
				c1,2.5,2.5,4.6,4.3,6.3c1.8,1.7,4,3,6.5,4c2.5,0.9,5.3,1.4,8.2,1.4c7.2,0,12.7-2.6,16.5-7.7l0.1-0.1l-6.6-5.3l-0.1,0.2
				c-1,1.5-2.4,2.7-4,3.6c-1.6,0.9-3.6,1.3-5.9,1.3c-1.3,0-2.7-0.2-3.9-0.7c-1.2-0.5-2.4-1.1-3.4-1.9c-1-0.8-1.8-1.8-2.4-2.9
				c-0.6-1.1-0.9-2.2-1-3.5h28.9l0-0.2c0.1-0.4,0.1-0.9,0.1-1.3v-1.3c0-3.4-0.5-6.5-1.4-9.1C110.7,58.8,109.4,56.7,107.7,54.9"/>
			<path class="st1" d="M50.6,61.8c0.9-1.1,1.9-2.1,3.2-2.8c1.3-0.7,2.8-1.1,4.5-1.1c1.5,0,3,0.4,4.4,1.1c1.4,0.7,2.5,1.6,3.3,2.6
				l0.1,0.2l6.7-5.8l0.1-0.1l-0.1-0.1c-1.5-1.9-3.7-3.4-6.3-4.4c-2.6-1.1-5.4-1.6-8.2-1.6c-2.8,0-5.5,0.5-8,1.4
				c-2.5,1-4.7,2.3-6.5,4.1c-1.9,1.8-3.4,3.9-4.4,6.4c-1.1,2.5-1.6,5.3-1.6,8.4c0,3.2,0.6,6.1,1.6,8.6c1.1,2.5,2.6,4.6,4.5,6.4
				c1.9,1.8,4.1,3.1,6.6,4c2.5,0.9,5.2,1.4,8,1.4c2.9,0,5.6-0.5,8-1.4c2.5-0.9,4.5-2.3,6.1-4l0.1-0.1l-6.1-6.2l-0.1-0.1l-0.1,0.2
				c-0.9,1.1-2.1,1.9-3.5,2.5c-1.5,0.6-2.9,0.9-4.4,0.9c-1.8,0-3.3-0.4-4.6-1c-1.3-0.7-2.4-1.6-3.3-2.8c-0.9-1.1-1.6-2.4-2-3.9
				C48.3,72.9,48,71.5,48,70s0.2-2.9,0.6-4.4C49.1,64.2,49.7,62.9,50.6,61.8"/>
			<path class="st1" d="M186,54.5c-1.1-1.4-2.6-2.6-4.4-3.5c-1.8-0.9-4-1.3-6.5-1.3c-2.9,0-5.4,0.7-7.5,2.2c-2,1.4-3.4,3-4.3,4.7
				v-5.8h-9.4v38.4h9.9V68.1c0-1.2,0.2-2.5,0.5-3.7c0.4-1.2,0.9-2.3,1.6-3.2c0.7-0.9,1.6-1.7,2.7-2.3c1.1-0.6,2.4-0.9,3.9-0.9
				c1.5,0,2.7,0.3,3.6,0.9c0.9,0.6,1.6,1.4,2.1,2.4c0.5,1,0.9,2,1,3.2c0.2,1.2,0.2,2.4,0.2,3.5v21.3h9.9v-24c0-2-0.3-3.9-0.8-5.8
				C188,57.6,187.1,56,186,54.5"/>
			<path class="st1" d="M129.7,58.1c1.2-0.6,2.6-0.9,4.1-0.9c1.7,0,3.3,0.4,4.8,1.2c1.5,0.8,2.6,1.8,3.4,2.8l0.1,0.2l6.5-5.7
				l-0.1-0.1c-1.5-2-3.7-3.5-6.3-4.4c-2.6-1-5.4-1.4-8.1-1.4c-1.9,0-3.8,0.2-5.6,0.7c-1.8,0.5-3.5,1.2-4.9,2.2
				c-1.4,1-2.6,2.3-3.5,3.8c-0.9,1.6-1.3,3.4-1.3,5.6c0,1.8,0.3,3.4,1,4.6c0.6,1.2,1.5,2.3,2.6,3.1c1.1,0.8,2.3,1.5,3.7,2
				c1.3,0.5,2.8,0.9,4.2,1.2c2.9,0.7,5.1,1.4,6.5,2.1c1.4,0.7,2.1,1.7,2.1,3.2c0,0.8-0.2,1.5-0.5,2c-0.4,0.6-0.8,1-1.4,1.3
				c-0.6,0.3-1.2,0.6-1.9,0.7c-0.7,0.2-1.4,0.2-2.1,0.2c-2,0-3.9-0.4-5.6-1.3c-1.7-0.9-3-2-4.1-3.4l-0.1-0.2l-6.5,6.1l0.1,0.1
				c1.9,2,4.2,3.6,7,4.7c2.8,1.1,5.7,1.6,8.7,1.6c2.1,0,4.1-0.2,6-0.7c1.9-0.5,3.7-1.2,5.1-2.2c1.5-1,2.7-2.4,3.5-4
				c0.9-1.6,1.3-3.6,1.3-6c0-1.9-0.4-3.5-1.1-4.8c-0.7-1.3-1.7-2.4-2.9-3.3c-1.2-0.9-2.5-1.6-4-2.1c-1.5-0.5-2.9-1-4.3-1.3
				c-2.7-0.6-4.7-1.3-6.1-1.9c-1.3-0.6-2-1.6-2-3C127.8,59.7,128.4,58.7,129.7,58.1"/>
			<path class="st1" d="M204.6,66c0.2-2.5,1.3-4.7,3.2-6.3c1.9-1.7,4.3-2.5,7.1-2.5c1.5,0,2.8,0.2,3.9,0.7c1.1,0.5,2,1.2,2.8,2
				c0.7,0.8,1.3,1.8,1.6,2.9c0.3,1,0.5,2.1,0.5,3.3H204.6z M228.3,54.9c-1.7-1.7-3.6-3.1-5.9-3.9c-2.3-0.9-4.8-1.3-7.4-1.3
				c-2.9,0-5.6,0.5-8,1.5c-2.5,1-4.6,2.4-6.4,4.2c-1.8,1.8-3.2,4-4.3,6.5c-1,2.5-1.6,5.4-1.6,8.4c0,3.1,0.5,6,1.6,8.4
				c1,2.5,2.5,4.6,4.3,6.3c1.8,1.7,4,3,6.5,4c2.5,0.9,5.3,1.4,8.2,1.4c7.2,0,12.7-2.6,16.5-7.7l0.1-0.1l-6.6-5.3l-0.1,0.2
				c-1,1.5-2.4,2.7-4,3.6c-1.6,0.9-3.6,1.3-5.9,1.3c-1.3,0-2.7-0.2-3.9-0.7c-1.2-0.5-2.4-1.1-3.4-1.9c-1-0.8-1.8-1.8-2.4-2.9
				c-0.6-1.1-0.9-2.2-1-3.5h28.9l0-0.2c0.1-0.4,0.1-0.9,0.1-1.3v-1.3c0-3.4-0.5-6.5-1.4-9.1C231.3,58.8,230,56.7,228.3,54.9"/>
		</g>
		<g>
			<polygon class="st2" points="146,115 136.1,115 136.1,105.1 146,105.1 			"/>
			<polygon class="st2" points="130.1,115 120.2,115 120.2,105.1 130.1,105.1 			"/>
			<polygon class="st2" points="104.3,115 104.3,124.9 114.2,124.9 114.2,115 			"/>
			<polygon class="st2" points="88.5,115 88.5,124.9 98.3,124.9 98.3,115 			"/>
			<polygon class="st2" points="72.6,115 72.6,124.9 82.5,124.9 82.5,115 			"/>
			<polygon class="st2" points="50.7,115 40.8,115 40.8,105.1 50.7,105.1 			"/>
			<polygon class="st2" points="66.6,115 56.7,115 56.7,105.1 66.6,105.1 			"/>
		</g>
	</g>
	<g>
	</g>
	<g>
	</g>
	<g>
	</g>
	<g>
	</g>
	<g>
	</g>
	<g>
	</g>
</g>
</svg>
