<?xml version="1.0" encoding="utf-8"?>
<!-- Generator: Adobe Illustrator 15.1.0, SVG Export Plug-In . SVG Version: 6.00 Build 0)  -->
<!DOCTYPE svg PUBLIC "-//W3C//DTD SVG 1.1//EN" "http://www.w3.org/Graphics/SVG/1.1/DTD/svg11.dtd">
<svg version="1.1" id="Layer_1" xmlns="http://www.w3.org/2000/svg" xmlns:xlink="http://www.w3.org/1999/xlink" x="0px" y="0px"
	 width="311.5px" height="85.723px" viewBox="0 0 311.5 85.723" enable-background="new 0 0 311.5 85.723" xml:space="preserve">
<g>
	<g>
		<radialGradient id="SVGID_1_" cx="59.1831" cy="26.1953" r="78.1581" gradientUnits="userSpaceOnUse">
			<stop  offset="0" style="stop-color:#0DA853"/>
			<stop  offset="1" style="stop-color:#28967B"/>
		</radialGradient>
		<path fill="url(#SVGID_1_)" d="M46.672,22.707c-0.047-0.043-0.133,0.18-0.313,0.402L11.074,71.68
			c0.801,0.89,1.602,1.691,2.488,2.492l32.754-49.641C46.359,23.996,46.539,23.242,46.672,22.707z M46.137,26.531L19.652,78.969
			c0.887,0.578,1.821,1.155,2.754,1.644l23.821-52.57C46.184,27.551,46.137,27.063,46.137,26.531z M46.672,30.262L29.785,83.723
			c1.067,0.358,2.133,0.625,3.199,0.89L47.07,31.465L46.672,30.262z M71.336,31.906c0.043,0,0.133-0.043,0.176-0.086l10.222-6.976
			c-0.402-0.801-1.023-1.957-1.468-2.758l-8.352,8.266C71.777,30.93,71.559,31.418,71.336,31.906z M69.602,34.75l15.242-0.086
			c-0.176-0.801-0.356-2-0.532-2.801L70.18,33.996C70,34.262,69.824,34.484,69.602,34.75z M40.848,85.68
			c0.625,0.043,1.289,0.043,1.957,0.043c0.445,0,0.886,0,1.379-0.043l4.664-51.196c-0.223-0.265-0.399-0.578-0.621-0.886
			L40.848,85.68z M48.316,19.285c0.223-0.308-0.535,0.356-0.8,0.578L4.719,62.527c0.488,1.024,1.066,2.043,1.691,3.02l40.84-44.395
			C47.469,20.707,48.18,19.422,48.316,19.285z M53.648,38.395l8.934,42.531c0.93-0.488,2.043-1.113,2.887-1.646L54.359,38.75
			C54.137,38.617,53.871,38.484,53.648,38.395z M63.957,38.84l19.555,17.465c0.265-0.801,0.668-2.043,0.886-2.887l-19.82-14.844
			C64.359,38.664,64.137,38.75,63.957,38.84z M67.645,36.75c-0.176,0.137-0.399,0.313-0.575,0.445l18.532,8.266
			c0.043-0.801,0.175-1.953,0.175-2.754L67.645,36.75z M60.492,39.641l18.176,26.664c0.488-0.801,1.242-1.957,1.687-2.754
			l-19.199-24C60.98,39.598,60.758,39.598,60.492,39.641z M58.27,13.332h0.175c0.27,0,0.578-0.043,0.848-0.043
			c7.285,0,13.195,5.91,13.195,13.195c0,0.758-0.086,1.512-0.176,2.27c0.133,0,0.266-0.09,0.313-0.18l3.285-12.711
			c-0.664-0.797-1.508-1.91-2.265-2.664l-1.02,9.11c-0.18-0.579-0.445-1.157-0.98-2.266c-0.176-0.355-0.399-0.758-0.665-1.113
			L67.734,8.043c-1.109-0.801-2.265-1.555-3.464-2.266l4.222,10.266c-0.758-0.711-1.512-1.332-1.914-1.688L57.691,2.668
			c-1.421-0.535-2.886-0.98-4.398-1.379l10.844,12.176l-0.27-0.043L46.359,0.18C45.203,0.09,44.004,0,42.805,0
			c-0.313,0-0.668,0-0.977,0.043l17.285,11.555L35.07,0.711c-1.375,0.266-2.711,0.578-4.043,0.934L57.07,11.867L24.141,4.266
			c-1.246,0.621-2.446,1.246-3.645,2l33.375,6.089l-39.285-1.734c-0.891,0.801-2.223,2.043-3.024,2.934l40.754-0.223L7.164,19.109
			c-0.754,1.11-1.422,2.266-2.09,3.422l45.906-8L1.965,29.82c-0.356,1.11-0.668,2.223-0.934,3.375l48.93-17.418L0.008,40.617
			c-0.043,0.758-0.043,1.512-0.043,2.266c0,0.312-0.043,1.023-0.043,1.336l49.371-27.11L0.852,51.727
			c0.222,1.113,0.535,2.179,0.847,3.289L49.16,18.133c0.223-0.27,0.488-0.535,0.711-0.801c0.531-0.488,1.289-1.156,2.133-1.777
			C53.738,14.309,56.359,13.508,58.27,13.332z M56.98,39.461l14.934,34.844c0.754-0.711,1.508-1.469,2.219-2.223L57.781,39.598
			C57.559,39.551,57.246,39.508,56.98,39.461z M50.625,36.395l1.422,48.351c1.113-0.266,2.223-0.53,3.336-0.844l-4-46.882
			C51.07,36.797,50.848,36.574,50.625,36.395z"/>
	</g>
</g>
<rect x="107.109" y="26.266" fill="#414042" width="2.887" height="30.219"/>
<polygon fill="#414042" points="117.953,26.266 120.84,26.266 120.84,39.195 137.195,39.195 137.195,26.266 140.082,26.266 
	140.082,56.484 137.195,56.484 137.195,41.863 120.84,41.863 120.84,56.484 117.953,56.484 "/>
<path fill="#414042" d="M146.125,49.016l2.578-0.934c1.336,4.223,4.402,6.356,8.668,6.356c4.531,0,7.465-2.086,7.465-5.465
	c0-3.157-1.512-4.754-7.91-6.801c-6.488-2.043-9.821-3.777-9.821-8.797c0-4.312,3.868-7.777,9.375-7.777
	c5.688,0,8.934,2.886,10.356,6.933l-2.445,1.153c-1.512-3.911-4.176-5.465-7.953-5.465c-4.043,0-6.489,2.179-6.489,4.933
	c0,3.379,2,4.532,8.356,6.578c6.308,2,9.375,4.086,9.375,8.977c0,5.02-4.446,8.266-10.489,8.266
	C151.547,57.016,147.551,53.949,146.125,49.016z"/>
<path fill="#414042" d="M182.566,26.266h3.778l10.133,26.441h0.089l10.043-26.441h3.821v30.218h-2.93V31.152h-0.09
	c-0.402,1.332-1.156,3.332-1.867,5.289l-7.82,19.997h-2.668l-7.821-19.997c-0.757-1.957-1.246-3.246-1.867-5.378h-0.09v25.421
	h-2.711V26.266z"/>
<path fill="#414042" d="M230.961,51.105v-6.71c-9.242,1.554-11.82,3.824-11.82,6.668c0,2.265,1.511,3.421,3.91,3.421
	C226.117,54.484,228.785,53.238,230.961,51.105z M216.387,51.461c0-4.266,3.644-7.332,14.574-9.02v-1.113
	c0-2.976-1.555-4.398-4.352-4.398c-3.379,0-5.777,1.422-8.047,3.379l-1.507-1.778c2.574-2.355,5.554-4,9.82-4
	c4.797,0,6.887,2.574,6.887,6.844v9.773c0,2.625,0.179,4.223,0.621,5.29h-2.887c-0.266-0.887-0.488-1.821-0.488-3.067
	c-2.488,2.266-5.289,3.422-8.488,3.422C218.652,56.84,216.387,54.793,216.387,51.461z"/>
<path fill="#414042" d="M240.293,34.93h2.801v4.265h0.09c1.687-2.664,4.265-4.664,8.531-4.664h0.488l-0.265,2.621
	c0,0-0.754-0.047-0.844-0.047c-3.512,0-6.309,1.958-7.953,5.336v13.997h-2.801V34.93H240.293z"/>
<polygon fill="#414042" points="256.426,26.266 259.227,26.266 259.227,46.305 269.492,34.973 272.781,34.973 265.758,42.574 
	273.625,56.484 270.602,56.484 263.891,44.707 259.227,49.684 259.227,56.484 256.426,56.484 "/>
<path fill="#414042" d="M278.289,34.93h2.801v21.508h-2.801V34.93z M278.203,26.93h2.977v3.023h-2.977V26.93z"/>
<path fill="#414042" d="M289.488,51.461V37.375h-3.777v-2.402h3.777v-7.731h2.801v7.731h5.602v2.402h-5.602v13.508
	c0,2.265,0.758,3.512,3.379,3.512c0.801,0,1.645-0.09,2.266-0.266v2.398c-0.668,0.133-1.777,0.266-2.754,0.266
	C291.047,56.75,289.488,55.148,289.488,51.461z"/>
<path fill="#414042" d="M304.555,34.395h-0.176c-0.047,0-0.137,0-0.137,0.046l-0.043,0.668h0.312c0.176,0,0.309,0,0.398-0.089
	c0.09-0.047,0.133-0.133,0.18-0.27C305.09,34.484,304.91,34.395,304.555,34.395z M303.754,34.039
	c0.09-0.043,0.223-0.043,0.402-0.043h0.488c0.266,0,0.488,0.09,0.664,0.18c0.18,0.133,0.27,0.308,0.27,0.574
	c0,0.18-0.09,0.359-0.223,0.445c-0.133,0.09-0.266,0.133-0.488,0.18l0.266,0.133l0.621,1.023h-0.578l-0.621-0.98l-0.445-0.176
	l-0.043,1.109h-0.488L303.754,34.039z M302.777,35.195c0,0.313,0.043,0.625,0.133,0.844c0.09,0.223,0.223,0.445,0.398,0.625
	c0.18,0.176,0.359,0.309,0.578,0.399c0.223,0.089,0.445,0.132,0.711,0.132c0.27,0,0.535,0,0.758-0.09
	c0.223-0.085,0.445-0.175,0.621-0.308c0.18-0.133,0.312-0.356,0.398-0.578c0.09-0.223,0.18-0.535,0.18-0.844
	c0-0.312-0.043-0.625-0.133-0.844c-0.09-0.222-0.223-0.445-0.402-0.625c-0.176-0.176-0.355-0.308-0.574-0.398
	c-0.223-0.09-0.445-0.133-0.711-0.133c-0.27,0-0.535,0-0.758,0.09c-0.223,0.086-0.445,0.176-0.621,0.308
	c-0.18,0.133-0.312,0.356-0.402,0.579C302.867,34.574,302.82,34.887,302.777,35.195z M302.199,35.152
	c0-0.402,0.09-0.757,0.223-1.023c0.133-0.309,0.312-0.531,0.578-0.754s0.488-0.355,0.801-0.445c0.309-0.09,0.621-0.133,0.934-0.133
	c0.355,0,0.664,0.09,0.93,0.176c0.312,0.136,0.535,0.269,0.758,0.492c0.223,0.219,0.355,0.488,0.488,0.797
	c0.133,0.312,0.18,0.668,0.133,1.066c0,0.402-0.09,0.758-0.223,1.024c-0.133,0.312-0.309,0.535-0.578,0.753
	c-0.223,0.18-0.488,0.356-0.797,0.446c-0.312,0.09-0.625,0.133-0.934,0.133c-0.355,0-0.668-0.086-0.934-0.176
	c-0.312-0.133-0.535-0.266-0.758-0.488c-0.223-0.223-0.355-0.489-0.488-0.801C302.242,35.906,302.199,35.551,302.199,35.152z"/>
</svg>
