<?xml version="1.0" encoding="UTF-8"?>
<svg xmlns="http://www.w3.org/2000/svg" xmlns:xlink="http://www.w3.org/1999/xlink" width="450pt" height="449.999984pt" viewBox="0 0 450 449.999984" version="1.2">
<defs>
<clipPath id="clip1">
  <path d="M 63.953125 63.953125 L 386.910156 63.953125 L 386.910156 386.910156 L 63.953125 386.910156 Z M 63.953125 63.953125 "/>
</clipPath>
<clipPath id="clip2">
  <path d="M 96.34375 104.867188 L 353.59375 104.867188 L 353.59375 344.867188 L 96.34375 344.867188 Z M 96.34375 104.867188 "/>
</clipPath>
</defs>
<g id="surface1">
<g clip-path="url(#clip1)" clip-rule="nonzero">
<path style=" stroke:none;fill-rule:nonzero;fill:rgb(0%,0%,0%);fill-opacity:1;" d="M 225.429688 63.953125 C 136.253906 63.953125 63.953125 136.253906 63.953125 225.429688 C 63.953125 314.609375 136.253906 386.910156 225.429688 386.910156 C 314.609375 386.910156 386.910156 314.609375 386.910156 225.429688 C 386.910156 136.253906 314.609375 63.953125 225.429688 63.953125 Z M 164.824219 136.660156 C 176.152344 136.660156 183.703125 144.207031 183.703125 154.273438 C 183.703125 164.339844 176.152344 171.886719 163.570312 171.886719 C 152.242188 171.902344 144.691406 164.339844 144.691406 154.273438 C 144.691406 144.207031 152.242188 136.660156 164.824219 136.660156 Z M 185.0625 292.714844 L 144.691406 292.714844 L 144.691406 185.0625 L 185.0625 185.0625 Z M 319.628906 292.714844 L 281.625 292.714844 L 281.625 233.882812 C 281.625 217.613281 271.492188 213.859375 267.699219 213.859375 C 263.902344 213.859375 251.226562 216.363281 251.226562 233.882812 C 251.226562 236.386719 251.226562 292.714844 251.226562 292.714844 L 211.976562 292.714844 L 211.976562 185.0625 L 251.242188 185.0625 L 251.242188 200.078125 C 256.300781 191.320312 266.433594 185.0625 285.433594 185.0625 C 304.433594 185.0625 319.628906 200.078125 319.628906 233.882812 Z M 319.628906 292.714844 "/>
</g>
<path style=" stroke:none;fill-rule:nonzero;fill:rgb(7.839966%,61.959839%,85.099792%);fill-opacity:1;" d="M 225 4.601562 C 221.394531 4.601562 217.789062 4.691406 214.183594 4.867188 C 210.582031 5.042969 206.988281 5.308594 203.398438 5.664062 C 199.808594 6.015625 196.230469 6.457031 192.660156 6.988281 C 189.09375 7.515625 185.539062 8.132812 182.003906 8.835938 C 178.464844 9.539062 174.945312 10.328125 171.449219 11.207031 C 167.949219 12.082031 164.472656 13.042969 161.023438 14.089844 C 157.570312 15.136719 154.144531 16.269531 150.75 17.484375 C 147.355469 18.699219 143.988281 19.996094 140.65625 21.378906 C 137.324219 22.757812 134.027344 24.21875 130.765625 25.761719 C 127.507812 27.304688 124.285156 28.925781 121.105469 30.625 C 117.921875 32.324219 114.785156 34.101562 111.691406 35.957031 C 108.597656 37.8125 105.550781 39.742188 102.554688 41.746094 C 99.554688 43.75 96.605469 45.824219 93.707031 47.972656 C 90.8125 50.121094 87.96875 52.339844 85.179688 54.628906 C 82.390625 56.917969 79.660156 59.273438 76.988281 61.695312 C 74.316406 64.117188 71.703125 66.605469 69.15625 69.15625 C 66.605469 71.703125 64.117188 74.316406 61.695312 76.988281 C 59.273438 79.660156 56.917969 82.390625 54.628906 85.179688 C 52.339844 87.96875 50.121094 90.8125 47.972656 93.707031 C 45.824219 96.605469 43.75 99.554688 41.746094 102.554688 C 39.742188 105.550781 37.8125 108.597656 35.957031 111.691406 C 34.101562 114.785156 32.324219 117.921875 30.625 121.105469 C 28.925781 124.285156 27.304688 127.507812 25.761719 130.765625 C 24.21875 134.027344 22.757812 137.324219 21.378906 140.65625 C 19.996094 143.988281 18.699219 147.355469 17.484375 150.75 C 16.269531 154.144531 15.136719 157.570312 14.089844 161.023438 C 13.042969 164.472656 12.082031 167.949219 11.207031 171.449219 C 10.328125 174.945312 9.539062 178.464844 8.835938 182.003906 C 8.132812 185.539062 7.515625 189.09375 6.988281 192.660156 C 6.457031 196.230469 6.015625 199.808594 5.664062 203.398438 C 5.308594 206.988281 5.042969 210.582031 4.867188 214.1875 C 4.691406 217.789062 4.601562 221.394531 4.601562 225 C 4.601562 228.605469 4.691406 232.210938 4.867188 235.816406 C 5.042969 239.417969 5.308594 243.011719 5.664062 246.601562 C 6.015625 250.191406 6.457031 253.769531 6.988281 257.339844 C 7.515625 260.90625 8.132812 264.460938 8.835938 267.996094 C 9.539062 271.535156 10.328125 275.054688 11.207031 278.550781 C 12.082031 282.050781 13.042969 285.527344 14.089844 288.976562 C 15.136719 292.429688 16.269531 295.855469 17.484375 299.25 C 18.699219 302.644531 19.996094 306.011719 21.378906 309.34375 C 22.757812 312.675781 24.21875 315.972656 25.761719 319.234375 C 27.304688 322.492188 28.925781 325.714844 30.625 328.894531 C 32.324219 332.078125 34.101562 335.214844 35.957031 338.308594 C 37.8125 341.402344 39.742188 344.449219 41.746094 347.445312 C 43.75 350.445312 45.824219 353.394531 47.972656 356.292969 C 50.121094 359.1875 52.339844 362.03125 54.628906 364.820312 C 56.917969 367.609375 59.273438 370.339844 61.695312 373.011719 C 64.117188 375.683594 66.605469 378.292969 69.15625 380.84375 C 71.703125 383.394531 74.316406 385.882812 76.988281 388.304688 C 79.660156 390.726562 82.390625 393.082031 85.179688 395.371094 C 87.96875 397.660156 90.8125 399.878906 93.707031 402.027344 C 96.605469 404.175781 99.554688 406.25 102.554688 408.253906 C 105.550781 410.257812 108.597656 412.1875 111.691406 414.042969 C 114.785156 415.898438 117.921875 417.675781 121.105469 419.375 C 124.285156 421.074219 127.507812 422.695312 130.765625 424.238281 C 134.027344 425.78125 137.324219 427.242188 140.65625 428.621094 C 143.988281 430.003906 147.355469 431.300781 150.75 432.515625 C 154.144531 433.730469 157.570312 434.863281 161.023438 435.910156 C 164.472656 436.957031 167.949219 437.917969 171.449219 438.792969 C 174.945312 439.671875 178.464844 440.460938 182.003906 441.164062 C 185.539062 441.867188 189.09375 442.484375 192.660156 443.011719 C 196.230469 443.542969 199.808594 443.984375 203.398438 444.335938 C 206.988281 444.691406 210.582031 444.957031 214.183594 445.132812 C 217.789062 445.308594 221.394531 445.398438 225 445.398438 C 228.605469 445.398438 232.210938 445.308594 235.8125 445.132812 C 239.417969 444.957031 243.011719 444.691406 246.601562 444.335938 C 250.191406 443.984375 253.769531 443.542969 257.339844 443.011719 C 260.90625 442.484375 264.460938 441.867188 267.996094 441.164062 C 271.535156 440.460938 275.054688 439.671875 278.550781 438.792969 C 282.050781 437.917969 285.527344 436.957031 288.976562 435.910156 C 292.429688 434.863281 295.855469 433.730469 299.25 432.515625 C 302.644531 431.300781 306.011719 430.003906 309.34375 428.621094 C 312.675781 427.242188 315.972656 425.78125 319.234375 424.238281 C 322.492188 422.695312 325.714844 421.074219 328.894531 419.375 C 332.078125 417.675781 335.214844 415.898438 338.308594 414.042969 C 341.402344 412.1875 344.449219 410.257812 347.445312 408.253906 C 350.445312 406.25 353.394531 404.175781 356.292969 402.027344 C 359.1875 399.878906 362.03125 397.660156 364.820312 395.371094 C 367.609375 393.082031 370.339844 390.726562 373.011719 388.304688 C 375.683594 385.882812 378.292969 383.394531 380.84375 380.84375 C 383.394531 378.292969 385.882812 375.683594 388.304688 373.011719 C 390.726562 370.339844 393.082031 367.609375 395.371094 364.820312 C 397.660156 362.03125 399.878906 359.1875 402.027344 356.292969 C 404.175781 353.394531 406.25 350.445312 408.253906 347.445312 C 410.257812 344.449219 412.1875 341.402344 414.042969 338.308594 C 415.898438 335.214844 417.675781 332.078125 419.375 328.894531 C 421.074219 325.714844 422.695312 322.492188 424.238281 319.234375 C 425.78125 315.972656 427.242188 312.675781 428.621094 309.34375 C 430.003906 306.011719 431.300781 302.644531 432.515625 299.25 C 433.730469 295.855469 434.863281 292.429688 435.910156 288.976562 C 436.957031 285.527344 437.917969 282.050781 438.792969 278.550781 C 439.671875 275.054688 440.460938 271.535156 441.164062 267.996094 C 441.867188 264.460938 442.484375 260.90625 443.011719 257.339844 C 443.542969 253.769531 443.984375 250.191406 444.335938 246.601562 C 444.691406 243.011719 444.957031 239.417969 445.132812 235.816406 C 445.308594 232.210938 445.398438 228.605469 445.398438 225 C 445.398438 221.394531 445.308594 217.789062 445.132812 214.1875 C 444.957031 210.582031 444.691406 206.988281 444.335938 203.398438 C 443.984375 199.808594 443.542969 196.230469 443.011719 192.660156 C 442.484375 189.09375 441.867188 185.539062 441.164062 182.003906 C 440.460938 178.464844 439.671875 174.945312 438.792969 171.449219 C 437.917969 167.949219 436.957031 164.472656 435.910156 161.023438 C 434.863281 157.570312 433.730469 154.144531 432.515625 150.75 C 431.300781 147.355469 430.003906 143.988281 428.621094 140.65625 C 427.242188 137.324219 425.78125 134.027344 424.238281 130.765625 C 422.695312 127.507812 421.074219 124.285156 419.375 121.105469 C 417.675781 117.921875 415.898438 114.785156 414.042969 111.691406 C 412.1875 108.597656 410.257812 105.550781 408.253906 102.554688 C 406.25 99.554688 404.175781 96.605469 402.027344 93.707031 C 399.878906 90.8125 397.660156 87.96875 395.371094 85.179688 C 393.082031 82.390625 390.726562 79.660156 388.304688 76.988281 C 385.882812 74.316406 383.394531 71.703125 380.84375 69.15625 C 378.292969 66.605469 375.683594 64.117188 373.011719 61.695312 C 370.339844 59.273438 367.609375 56.917969 364.820312 54.628906 C 362.03125 52.339844 359.1875 50.121094 356.292969 47.972656 C 353.394531 45.824219 350.445312 43.75 347.445312 41.746094 C 344.449219 39.742188 341.402344 37.8125 338.308594 35.957031 C 335.214844 34.101562 332.078125 32.324219 328.894531 30.625 C 325.714844 28.925781 322.492188 27.304688 319.234375 25.761719 C 315.972656 24.21875 312.675781 22.757812 309.34375 21.378906 C 306.011719 19.996094 302.644531 18.699219 299.25 17.484375 C 295.855469 16.269531 292.429688 15.136719 288.976562 14.089844 C 285.527344 13.042969 282.050781 12.082031 278.550781 11.207031 C 275.054688 10.328125 271.535156 9.539062 267.996094 8.835938 C 264.460938 8.132812 260.90625 7.515625 257.339844 6.988281 C 253.769531 6.457031 250.191406 6.015625 246.601562 5.664062 C 243.011719 5.308594 239.417969 5.042969 235.8125 4.867188 C 232.210938 4.691406 228.605469 4.601562 225 4.601562 Z M 225 4.601562 "/>
<g clip-path="url(#clip2)" clip-rule="nonzero">
<path style=" stroke:none;fill-rule:nonzero;fill:rgb(100%,100%,100%);fill-opacity:1;" d="M 130.003906 104.921875 C 110.621094 104.921875 96.542969 116.527344 96.542969 132.488281 C 96.542969 148.507812 110.953125 160.625 130.003906 160.625 C 149.386719 160.625 163.464844 148.796875 163.464844 132.164062 C 162.570312 116.144531 148.773438 104.921875 130.003906 104.921875 Z M 102.074219 171.84375 C 99 171.84375 96.488281 174.355469 96.488281 177.425781 L 96.488281 339.285156 C 96.488281 342.355469 99 344.867188 102.074219 344.867188 L 157.933594 344.867188 C 161.007812 344.867188 163.519531 342.355469 163.519531 339.285156 L 163.519531 177.425781 C 163.519531 174.355469 161.007812 171.84375 157.933594 171.84375 Z M 185.863281 171.84375 C 182.792969 171.84375 180.277344 174.355469 180.277344 177.425781 L 180.277344 339.285156 C 180.277344 342.355469 182.792969 344.867188 185.863281 344.867188 L 236.140625 344.867188 C 239.222656 344.867188 241.726562 342.367188 241.726562 339.285156 L 241.726562 252.773438 C 241.726562 239.546875 251.894531 228.769531 264.855469 227.765625 C 265.527344 227.652344 266.191406 227.65625 266.863281 227.65625 C 267.535156 227.65625 268.199219 227.652344 268.871094 227.765625 C 281.832031 228.769531 292 239.546875 292 252.773438 L 292 339.285156 C 292 342.367188 294.503906 344.867188 297.585938 344.867188 L 347.863281 344.867188 C 350.933594 344.867188 353.449219 342.355469 353.449219 339.285156 L 353.449219 244.402344 C 353.449219 208.289062 334.058594 171.84375 290.824219 171.84375 C 271.160156 171.84375 256.304688 179.433594 247.3125 185.742188 L 247.3125 177.425781 C 247.3125 174.355469 244.796875 171.84375 241.726562 171.84375 Z M 185.863281 171.84375 "/>
</g>
</g>
</svg>
