<svg xmlns="http://www.w3.org/2000/svg" viewBox="0 0 597 394"><title>Artboard 6</title><path d="M39.12,358.7H21.57l-3.186,9.75H9.74l16.055-46.28h9.23l15.989,46.28H42.37Zm-8.905-26.845L23.65,351.55H36.91l-6.565-19.694Z"/><path d="M80.718,343.686l17.29-21.45,10.79-.065L91.9,342.125l16.64,26.325H98.269l-12.48-20.41-5.07,5.59v14.82H72.463V322.17h8.255Z"/><path d="M139.412,354.28l-21.45-.065v.65a8.439,8.439,0,0,0,1.788,5.785q1.786,2.016,5.427,2.015a7.267,7.267,0,0,0,4.062-1.008,5.223,5.223,0,0,0,2.113-2.632h7.734a13.053,13.053,0,0,1-4.68,7.41q-3.642,2.924-9.75,2.925-6.891,0-10.758-4.226T110.032,353.5v-3.185q0-7.474,3.965-11.7t11.05-4.225q7.345,0,10.855,4.159t3.51,11.9Zm-21.45-5.85h13.13v-.65a7.632,7.632,0,0,0-1.592-5.037,5.776,5.776,0,0,0-4.713-1.918,6.35,6.35,0,0,0-5,2.048,7.307,7.307,0,0,0-1.82,5.037Z"/><path d="M142.012,382.425v-6.63a13.539,13.539,0,0,0,3.771.585,6.368,6.368,0,0,0,3.64-1.007,7.625,7.625,0,0,0,2.535-3.673l1.5-3.705-11.83-32.7h8.32l7.54,23.6h.13l8-23.6h8.58l-14.235,37.115a19.985,19.985,0,0,1-5.1,8.027,11.691,11.691,0,0,1-7.963,2.633A17.252,17.252,0,0,1,142.012,382.425Z"/><path d="M188.813,355.093a22.969,22.969,0,0,1-9.067-3.218q-3.218-2.209-3.218-6.89a9.57,9.57,0,0,1,3.412-7.735q3.413-2.859,9.458-2.859,12.154,0,12.675,10.01H194.4q-.327-3.769-5.07-3.771a6.486,6.486,0,0,0-3.9,1.008,3.432,3.432,0,0,0,1.267,6.077q2.634.781,6.891,1.723a13.831,13.831,0,0,1,6.532,3.056,7.886,7.886,0,0,1,2.275,6.077,9.512,9.512,0,0,1-3.673,7.9q-3.672,2.893-9.848,2.893-6.63,0-9.848-2.665t-3.478-8.061H182.9a4.412,4.412,0,0,0,1.625,3.478,7.349,7.349,0,0,0,4.484,1.138,7.2,7.2,0,0,0,4.16-1.04,3.3,3.3,0,0,0,1.5-2.859Q194.662,356.1,188.813,355.093Z"/><path d="M207.921,329.125V320.48h9.165v8.645Zm.715,39.325V335.3h7.8v33.15Z"/><path d="M223.846,371.83h7.93a5.138,5.138,0,0,0,1.853,3.705,7.344,7.344,0,0,0,4.778,1.365q3.639,0,5.427-1.853t1.788-5.753v-5.2h-.13q-3.252,4.1-9.23,4.1-6.24,0-9.685-3.9t-3.445-11.5v-2.21q0-7.474,3.575-11.83t10.075-4.354a12.926,12.926,0,0,1,5.427,1.007,7.627,7.627,0,0,1,3.283,2.7h.13V335.3h7.734v34q0,6.825-3.933,10.53t-11.6,3.705q-6.435,0-10.075-3.022T223.846,371.83Zm9.2-12.772a6.287,6.287,0,0,0,5.3,2.308,6.547,6.547,0,0,0,5.428-2.308q1.852-2.306,1.853-6.857v-1.885q0-4.55-1.69-6.857t-5.395-2.308q-7.28,0-7.28,10.4Q231.256,356.751,233.043,359.058Z"/><path d="M269.28,339.655h.13a9.841,9.841,0,0,1,3.705-3.835,11.253,11.253,0,0,1,5.85-1.43q5.656,0,8.353,3.314t2.7,9.815v20.93h-7.8V348.82a9.222,9.222,0,0,0-1.4-5.492q-1.4-1.917-4.582-1.918a6.025,6.025,0,0,0-5.266,2.372,10.35,10.35,0,0,0-1.689,6.143V368.45h-7.8V321h7.8Z"/><path d="M299.829,325.16h7.8V335.3h8.645v6.37H307.63v15.795a5.6,5.6,0,0,0,.942,3.641,4.127,4.127,0,0,0,3.282,1.1h4.225v6.306h-6.694q-5.136,0-7.346-2.568t-2.21-7.637V341.67h-5.395V335.3h5.395Z"/><path d="M363.138,344.79v.13a9.871,9.871,0,0,1,6.468,3.25,10.417,10.417,0,0,1,2.372,7.085q0,7.28-4.55,10.238t-12.609,2.957h-15.6V322.17h18.46q6.3,0,9.88,3.088T371.133,334a11.455,11.455,0,0,1-2.178,6.987A9.717,9.717,0,0,1,363.138,344.79Zm-8.319-15.47h-7.346v12.35h7.215a9.164,9.164,0,0,0,5.525-1.56,5.624,5.624,0,0,0,2.146-4.875,5.389,5.389,0,0,0-1.82-4.42Q358.717,329.321,354.818,329.32Zm-.716,19.24h-6.63V361.3h6.955a12.043,12.043,0,0,0,6.5-1.43q2.209-1.428,2.21-4.875,0-3.835-2.242-5.135T354.1,348.561Z"/><path d="M399.472,364.03h-.13a10.144,10.144,0,0,1-3.673,3.867,10.881,10.881,0,0,1-5.817,1.463q-5.654,0-8.353-3.282t-2.7-9.848V335.3h7.8v19.631a9.386,9.386,0,0,0,1.365,5.492q1.365,1.917,4.615,1.917a5.969,5.969,0,0,0,5.232-2.34,10.466,10.466,0,0,0,1.657-6.175V335.3h7.8v33.15h-7.8Z"/><path d="M426.121,355.093a22.969,22.969,0,0,1-9.067-3.218q-3.218-2.209-3.218-6.89a9.57,9.57,0,0,1,3.412-7.735q3.413-2.859,9.458-2.859,12.154,0,12.675,10.01h-7.67q-.327-3.769-5.07-3.771a6.486,6.486,0,0,0-3.9,1.008,3.432,3.432,0,0,0,1.267,6.077q2.634.781,6.891,1.723a13.831,13.831,0,0,1,6.532,3.056,7.886,7.886,0,0,1,2.275,6.077,9.512,9.512,0,0,1-3.673,7.9q-3.672,2.893-9.848,2.893-6.63,0-9.848-2.665t-3.478-8.061h7.346a4.412,4.412,0,0,0,1.625,3.478,7.349,7.349,0,0,0,4.484,1.138,7.2,7.2,0,0,0,4.16-1.04,3.3,3.3,0,0,0,1.5-2.859Q431.971,356.1,426.121,355.093Z"/><path d="M445.229,329.125V320.48h9.165v8.645Zm.715,39.325V335.3h7.8v33.15Z"/><path d="M469.6,339.655h.13a9.841,9.841,0,0,1,3.705-3.835,11.253,11.253,0,0,1,5.85-1.43q5.656,0,8.353,3.314t2.7,9.815v20.93h-7.8V348.82a9.222,9.222,0,0,0-1.4-5.492q-1.4-1.917-4.582-1.918a5.994,5.994,0,0,0-5.266,2.405,10.5,10.5,0,0,0-1.689,6.175v18.46h-7.8V335.3h7.8Z"/><path d="M526.219,354.28l-21.45-.065v.65a8.439,8.439,0,0,0,1.788,5.785q1.786,2.016,5.427,2.015a7.267,7.267,0,0,0,4.063-1.008,5.223,5.223,0,0,0,2.113-2.632h7.734a13.053,13.053,0,0,1-4.68,7.41q-3.642,2.924-9.75,2.925-6.891,0-10.758-4.226T496.839,353.5v-3.185q0-7.474,3.965-11.7t11.05-4.225q7.345,0,10.855,4.159t3.51,11.9Zm-21.45-5.85H517.9v-.65a7.632,7.632,0,0,0-1.592-5.037,5.776,5.776,0,0,0-4.713-1.918,6.35,6.35,0,0,0-5,2.048,7.307,7.307,0,0,0-1.82,5.037Z"/><path d="M543.639,355.093a22.969,22.969,0,0,1-9.067-3.218q-3.218-2.209-3.218-6.89a9.57,9.57,0,0,1,3.412-7.735q3.413-2.859,9.458-2.859,12.154,0,12.675,10.01h-7.67q-.327-3.769-5.07-3.771a6.486,6.486,0,0,0-3.9,1.008,3.432,3.432,0,0,0,1.267,6.077q2.634.781,6.891,1.723a13.831,13.831,0,0,1,6.532,3.056,7.886,7.886,0,0,1,2.275,6.077,9.512,9.512,0,0,1-3.673,7.9q-3.672,2.893-9.848,2.893-6.63,0-9.848-2.665t-3.478-8.061h7.346a4.412,4.412,0,0,0,1.625,3.478,7.349,7.349,0,0,0,4.484,1.138,7.2,7.2,0,0,0,4.16-1.04,3.3,3.3,0,0,0,1.5-2.859Q549.488,356.1,543.639,355.093Z"/><path d="M574.188,355.093a22.969,22.969,0,0,1-9.067-3.218q-3.218-2.209-3.218-6.89a9.57,9.57,0,0,1,3.412-7.735q3.413-2.859,9.458-2.859,12.154,0,12.675,10.01h-7.67q-.327-3.769-5.07-3.771a6.486,6.486,0,0,0-3.9,1.008,3.432,3.432,0,0,0,1.267,6.077q2.634.781,6.891,1.723a13.831,13.831,0,0,1,6.532,3.056,7.886,7.886,0,0,1,2.275,6.077,9.512,9.512,0,0,1-3.673,7.9q-3.672,2.893-9.848,2.893-6.63,0-9.848-2.665t-3.478-8.061h7.346a4.412,4.412,0,0,0,1.625,3.478,7.349,7.349,0,0,0,4.484,1.138,7.2,7.2,0,0,0,4.16-1.04,3.3,3.3,0,0,0,1.5-2.859Q580.037,356.1,574.188,355.093Z"/><path d="M60.831,266.493a10.769,10.769,0,0,1-1.543,5.966c-1.04,1.623-3.149,2.443-6.4,2.443H21.513q-8.811,0-8.808-8.409V66.861q0-8.388,8.808-8.4h31.37c3.256,0,5.365.808,6.4,2.43a10.842,10.842,0,0,1,1.543,5.972Z"/><path d="M207.873,164.459,278.1,265.628c1.468,2.357,1.761,4.478.86,6.4-.86,1.909-2.789,2.877-5.723,2.877H235.681a12.693,12.693,0,0,1-6.832-1.551,15.78,15.78,0,0,1-4.667-5.074l-44.154-68.905-44.164,68.905a13.037,13.037,0,0,1-11.928,6.625H86.84c-2.963,0-4.788-.9-5.541-2.659-.715-1.753-.35-3.966,1.107-6.615l70.227-101.169L86.394,67.293c-1.489-2.048-1.842-4.049-1.112-5.943.744-1.929,2.563-2.891,5.528-2.891h37.532c3.258,0,5.375.522,6.406,1.541a48.662,48.662,0,0,1,4.183,5.081l41.534,64.061,41.073-64.061A23.623,23.623,0,0,1,225.52,60c1.182-1.019,3.1-1.541,5.749-1.541h39.316c3.5,0,5.584.886,6.181,2.647s.144,3.824-1.324,6.187Z"/><path d="M349.365,266.493a10.947,10.947,0,0,1-1.526,5.966c-1.037,1.623-3.162,2.443-6.409,2.443h-31.36q-8.823,0-8.829-8.409V66.861q0-8.388,8.829-8.4h31.36c3.247,0,5.372.808,6.409,2.43a11.022,11.022,0,0,1,1.526,5.972Z"/><path d="M515.127,249.711a149.689,149.689,0,0,1-37.779,20.779,121.783,121.783,0,0,1-43.51,7.942q-17.654,0-29.375-4.645-11.686-4.616-18.555-12.814a48.229,48.229,0,0,1-9.705-19.646,105.244,105.244,0,0,1-2.861-25.607q-.48-38.9,20.295-56.343t62.747-17.434h56.524v-11.6a60.435,60.435,0,0,0-2.008-16.7,22.585,22.585,0,0,0-7.26-11.365q-5.319-4.474-14.14-6.239a116.309,116.309,0,0,0-22.525-1.807c-3.558,0-7.872.171-13.041.458-5.139.289-10.455.576-15.905.872s-10.879.744-16.352,1.317q-8.165.9-14.789,1.324c-4.417.6-7.427.678-9.043.246-1.642-.46-2.726-2.291-3.315-5.514l-3.98-16.156a9.658,9.658,0,0,1,.887-7.224q1.752-2.815,9.275-5.9A99.194,99.194,0,0,1,417.5,59.3q9.7-1.767,19.876-2.846,10.153-1.116,20.108-1.756c6.622-.434,12.559-.645,17.885-.645q28.683,0,45.7,5.717,17,5.752,25.853,16.133,8.814,10.378,11.48,25.4a194.66,194.66,0,0,1,2.636,33.566v85.254a63.233,63.233,0,0,0,.668,10.362,13.13,13.13,0,0,0,2.212,5.762,8.587,8.587,0,0,0,4.652,2.864,43.525,43.525,0,0,0,8.371,1.323c3.253.3,5.438.887,6.615,1.758s1.784,2.509,1.784,4.865v18.564c0,5.007-3.534,8.082-10.62,9.274-3.5.569-7.056,1.091-10.587,1.528a78.312,78.312,0,0,1-10.158.669q-15.463,0-24.938-5.75c-6.357-3.819-10.687-10.875-13.057-21.178Zm-2.65-73.307H458.57q-16.8,0-26.49,7.725-9.753,7.73-9.728,29.371c0,9.707,2.007,16.418,5.976,20.107s11.092,5.51,21.4,5.51a75.263,75.263,0,0,0,15.481-1.756,123.693,123.693,0,0,0,16.787-4.863q8.371-3.114,16.345-6.863c5.3-2.478,10-4.91,14.14-7.267Z"/><path d="M71.049,12.877c2.366,0,3.235,1.616,1.933,3.591l-10.418,15.8A8.948,8.948,0,0,1,55.9,35.856H17.006c-2.367,0-3.228-1.611-1.918-3.581L25.629,16.457a9,9,0,0,1,6.685-3.58Z"/><path d="M359.584,12.877c2.367,0,3.235,1.616,1.935,3.591L351.1,32.265a8.942,8.942,0,0,1-6.669,3.592H305.541c-2.367,0-3.229-1.611-1.917-3.581l10.542-15.819a9,9,0,0,1,6.686-3.58Z"/></svg>