<?xml version="1.0" encoding="UTF-8"?> <svg xmlns="http://www.w3.org/2000/svg" width="455" height="282" viewBox="0 0 455 282"><title>brand-asset</title><rect x="-2.66" y="-0.05" width="460.02" height="285.39" fill="#fff"></rect><polygon points="284.19 130.31 295.42 130.31 295.42 129.02 282.79 129.02 282.79 147.54 284.19 147.54 284.19 138.78 293.09 138.78 293.09 137.46 284.19 137.46 284.19 130.31"></polygon><polygon points="301.84 129.02 294.43 147.54 295.91 147.54 301.98 132.3 302.65 130.39 302.68 130.39 303.35 132.36 309.41 147.54 310.9 147.54 303.49 129.02 301.84 129.02"></polygon><path d="M323,138.17v0a4.08,4.08,0,0,0,2.52-1.48,4.35,4.35,0,0,0,.87-2.73,4.54,4.54,0,0,0-1.48-3.64A6.88,6.88,0,0,0,320.4,129h-6.54v18.52h6.54a7.72,7.72,0,0,0,4.85-1.32,4.36,4.36,0,0,0,1.69-3.65,4.26,4.26,0,0,0-1.05-2.93A4.59,4.59,0,0,0,323,138.17Zm-7.78-7.86h5.17c3,0,4.52,1.2,4.52,3.62s-1.51,3.62-4.52,3.62h-5.17Zm9,15a5.71,5.71,0,0,1-3.58.95h-5.42v-7.41h5.42a5.71,5.71,0,0,1,3.58.94,3.8,3.8,0,0,1,0,5.52Z"></path><path d="M342.27,138.07a4.65,4.65,0,0,0,1.66-3.81,4.81,4.81,0,0,0-1.64-3.84,6.56,6.56,0,0,0-4.42-1.4H331v18.52h1.4v-8h5.31l.14-.08h0l5.38,8.11h1.65l-5.42-8.25A5.94,5.94,0,0,0,342.27,138.07Zm-9.88.12v-7.88h5.45a5.16,5.16,0,0,1,3.44,1,3.66,3.66,0,0,1,1.19,2.93,3.61,3.61,0,0,1-1.19,2.92,5.15,5.15,0,0,1-3.44,1Z"></path><rect x="348.2" y="129.02" width="1.4" height="18.52"></rect><path d="M368.07,142.32a5.59,5.59,0,0,1-2.19,3.13,6.71,6.71,0,0,1-9.91-2.77,10.25,10.25,0,0,1-.87-4.4,10.1,10.1,0,0,1,.89-4.42,6.49,6.49,0,0,1,6.13-3.83,6.26,6.26,0,0,1,3.68,1,5.75,5.75,0,0,1,2.05,2.94l1.37-.65a6.63,6.63,0,0,0-1.49-2.51,6.26,6.26,0,0,0-2.4-1.55,9.68,9.68,0,0,0-3.29-.51,8.27,8.27,0,0,0-4.43,1.16,7.78,7.78,0,0,0-2.93,3.3,11.51,11.51,0,0,0-1,5.08,11.26,11.26,0,0,0,1.06,5.08,7.87,7.87,0,0,0,2.94,3.3,8.35,8.35,0,0,0,4.42,1.16,8.86,8.86,0,0,0,3.3-.59,6.92,6.92,0,0,0,2.53-1.71,7.31,7.31,0,0,0,1.58-2.67Z"></path><polygon points="251.1 139.71 258.99 139.71 258.99 136.73 251.1 136.73 251.1 132.13 261.12 132.13 261.12 129.02 247.23 129.02 247.23 147.54 261.52 147.54 261.52 144.43 251.1 144.43 251.1 139.71"></polygon><polygon points="263.39 129.02 263.39 132.13 269.62 132.13 269.62 147.54 273.5 147.54 273.5 132.13 279.7 132.13 279.7 129.02 263.39 129.02"></polygon><path d="M190.1,131.78a5.39,5.39,0,0,0-2.34-2.05,8.49,8.49,0,0,0-3.65-.71h-7.78v18.52h3.87V141h3.91a8.64,8.64,0,0,0,3.65-.71,5.39,5.39,0,0,0,2.34-2,6.64,6.64,0,0,0,0-6.43Zm-4,5.39a3.91,3.91,0,0,1-2.61.74H180.2v-5.83h3.32a4,4,0,0,1,2.61.73A2.67,2.67,0,0,1,187,135,2.71,2.71,0,0,1,186.13,137.17Z"></path><path d="M197.26,129l-6.76,18.52h4L196,143h7.15l1.52,4.52h4L201.9,129Zm-.32,11.14,1.78-5.28.79-2.75h.06l.84,2.81,1.75,5.22Z"></path><path d="M221,143.84a4.33,4.33,0,0,1-2.63.81,4.93,4.93,0,0,1-2.75-.73,4.52,4.52,0,0,1-1.69-2.16,9.25,9.25,0,0,1-.58-3.48,8.81,8.81,0,0,1,.62-3.5,4.63,4.63,0,0,1,1.75-2.14,4.77,4.77,0,0,1,2.65-.73,4.23,4.23,0,0,1,2.53.71,4.3,4.3,0,0,1,1.46,2.4l3.51-1.49a6.41,6.41,0,0,0-1.59-2.69,6.77,6.77,0,0,0-2.62-1.59,11,11,0,0,0-3.45-.51,9.22,9.22,0,0,0-4.7,1.15,7.66,7.66,0,0,0-3.09,3.28,12.63,12.63,0,0,0,0,10.22,7.71,7.71,0,0,0,3.09,3.28,9.34,9.34,0,0,0,4.75,1.15,9.76,9.76,0,0,0,3.45-.59,7.25,7.25,0,0,0,2.73-1.79,7.32,7.32,0,0,0,1.68-3l-3.56-1.06A4.38,4.38,0,0,1,221,143.84Z"></path><polygon points="238 136.59 244.67 129.02 240.18 129.02 232.57 137.79 232.57 129.02 228.7 129.02 228.7 147.54 232.57 147.54 232.57 142.09 235.22 139.09 240.46 147.54 244.89 147.54 238 136.59"></polygon><path d="M145.91,148.62l-4-4-5.58-5.59-.2-.2-.15-.14-4.83,4.83-13.69,13.68-13.92-13.78-1.18,1.18,13.92,13.78-8.77,8.78a12.32,12.32,0,0,1-17.42-17.42l.12-.11,2.18-1.94-1.17-1.17-2.36,2.09a14,14,0,0,0,19.83,19.73L136,141.06l8.72,8.71a12.32,12.32,0,0,1-17.42,17.42l-2.08-2.08-1.19,1.17,2.09,2.09a14,14,0,1,0,19.77-19.75Z" fill="#0b77f3"></path><path d="M145.9,111.39a14,14,0,0,0-19.78,0l-6,6-2.6,2.73-5.36-5.28,0,0-3.41-3.41A14,14,0,0,0,89,131.22l3.91,3.88,5.81,5.79.15.15,18.56-18.56L131.15,136l.35.35,1.18-1.19-.35-.34L118.57,121.3l8.73-8.73A12.32,12.32,0,0,1,144.72,130l-2.29,2.28,1.18,1.18,2.29-2.28a14,14,0,0,0,0-19.78ZM98.81,138.71,90.14,130a12.32,12.32,0,0,1,17.42-17.42l8.67,8.67Z" fill="#4dd486"></path></svg> 