<svg height="200" viewBox="0 0 1024 1024" width="200" xmlns="http://www.w3.org/2000/svg"><path d="m512 64c-247.4 0-448 200.6-448 448s200.6 448 448 448 448-200.6 448-448-200.6-448-448-448zm-150.5 516.2c0 27.8-22.5 50.4-50.3 50.4-13.3 0-26.1-5.3-35.6-14.8-9.4-9.5-14.7-22.3-14.7-35.6 0-27.8 22.5-50.4 50.3-50.4h50.3zm134 134.4c0 27.8-22.5 50.4-50.3 50.4s-50.3-22.6-50.3-50.4v-134.4c0-27.8 22.5-50.4 50.3-50.4 13.3 0 26.1 5.3 35.6 14.8s14.7 22.3 14.7 35.6zm-50.2-218.4h-134c-27.8 0-50.3-22.6-50.3-50.4s22.5-50.4 50.3-50.4h134c27.8 0 50.3 22.6 50.3 50.4-.1 27.9-22.6 50.4-50.3 50.4zm0-134.4c-13.3 0-26.1-5.3-35.6-14.8s-14.7-22.2-14.7-35.6c0-27.8 22.5-50.4 50.3-50.4s50.3 22.6 50.3 50.4v50.4zm83.7-50.4c0-27.8 22.5-50.4 50.3-50.4s50.3 22.6 50.3 50.4v134.4c0 27.8-22.5 50.4-50.3 50.4s-50.3-22.6-50.3-50.4zm50.3 453.6c-27.8 0-50.3-22.6-50.3-50.4v-50.4h50.3c27.8 0 50.3 22.6 50.3 50.4s-22.5 50.4-50.3 50.4zm134-134.4h-134c-13.3 0-26.1-5.3-35.6-14.8s-14.7-22.2-14.7-35.6c0-27.8 22.5-50.4 50.3-50.4h134c27.8 0 50.3 22.6 50.3 50.4s-22.5 50.4-50.3 50.4zm0-134.4h-50.3v-50.4c0-27.8 22.5-50.4 50.3-50.4s50.3 22.6 50.3 50.4-22.5 50.4-50.3 50.4z" fill="#149ED9"/></svg>